<svg width="100" height="30" viewBox="0 0 100 30" fill="none" xmlns="http://www.w3.org/2000/svg">
<rect x="0.25" y="0.25" width="99.5" height="29.5" rx="4.75" fill="white"/>
<path d="M28.2237 11.103H26.3288L23.5918 18.0103H25.3073L25.7518 16.8351H28.3407L27.8728 15.5461H26.1651L27.2724 12.5739L29.2452 18.0103H30.9607L28.2237 11.103ZM57.0211 18.0103V11.103H58.5417V16.7138H61.5438V18.0103H57.0211ZM65.7936 18.0103V11.103H67.322V16.7138H70.3242V18.0103H65.7936ZM48.5838 12.3389C49.8471 12.3389 50.8686 13.3321 50.8686 14.5604C50.8686 15.7888 49.8471 16.782 48.5838 16.782C47.3206 16.782 46.2991 15.7888 46.2991 14.5604C46.2991 13.3321 47.3284 12.3389 48.5838 12.3389ZM48.5838 10.9893C46.5564 10.9893 44.9111 12.5891 44.9111 14.5604C44.9111 16.5318 46.5564 18.1316 48.5838 18.1316C50.6113 18.1316 52.2566 16.5318 52.2566 14.5604C52.2566 12.5891 50.6113 10.9893 48.5838 10.9893ZM77.3266 12.3389C78.5899 12.3389 79.6114 13.3321 79.6114 14.5604C79.6114 15.7888 78.5899 16.782 77.3266 16.782C76.0634 16.782 75.0419 15.7888 75.0419 14.5604C75.0419 13.3321 76.0634 12.3389 77.3266 12.3389ZM77.3266 10.9893C75.2992 10.9893 73.6538 12.5891 73.6538 14.5604C73.6538 16.5318 75.2992 18.1316 77.3266 18.1316C79.3541 18.1316 80.9994 16.5318 80.9994 14.5604C80.9994 12.5891 79.3541 10.9893 77.3266 10.9893ZM38.704 11.103H35.3899V18.0103H36.9027V15.6295H38.704C39.9672 15.6295 40.9887 14.5908 40.9887 13.3625C40.9887 12.1417 39.9672 11.103 38.704 11.103ZM38.704 14.2799H36.9027V12.4526H38.704C39.1952 12.4526 39.6007 12.8848 39.6007 13.3625C39.6007 13.8401 39.1952 14.2799 38.704 14.2799Z" fill="#333333"/>
<path d="M34.0869 20.1028C33.9544 20.1028 33.8374 20.1634 33.7672 20.262C33.7672 20.262 33.4241 20.6411 33.2448 20.8231C32.465 21.5813 31.5604 22.1727 30.5545 22.5897C29.5096 23.0219 28.4023 23.2342 27.256 23.2342C26.1097 23.2342 25.0024 23.0143 23.9575 22.5897C22.9516 22.1727 22.0393 21.5813 21.2673 20.8231C20.4875 20.0649 19.8793 19.1853 19.4504 18.2072C19.0059 17.1912 18.7876 16.1146 18.7876 15C18.7876 13.8854 19.0137 12.8088 19.4504 11.7928C19.8715 10.8147 20.4797 9.92755 21.2595 9.17692C22.0393 8.4187 22.9438 7.8273 23.9497 7.41028C24.9947 6.9781 26.1019 6.7658 27.2482 6.7658C28.3945 6.7658 29.5018 6.98568 30.5467 7.41028C31.2797 7.71356 31.9581 8.10784 32.5741 8.59309C32.5429 8.68408 32.5196 8.79023 32.5196 8.89638C32.5196 9.41196 32.9484 9.82898 33.4787 9.82898C34.0089 9.82898 34.4378 9.41196 34.4378 8.89638C34.4378 8.38079 34.0089 7.96377 33.4787 7.96377C33.3461 7.96377 33.2214 7.98652 33.1122 8.0396C31.5136 6.7658 29.4784 6 27.2482 6C22.1406 6 18 10.0261 18 15C18 19.9739 22.1406 24 27.256 24C30.1178 24 32.6677 22.7414 34.3676 20.7548C34.4378 20.6866 34.4846 20.588 34.4846 20.4895C34.4768 20.2772 34.2975 20.1028 34.0869 20.1028Z" fill="#333333"/>
<rect x="0.25" y="0.25" width="99.5" height="29.5" rx="4.75" stroke="#EBEBEB" stroke-width="0.5"/>
</svg>
