<svg width="100" height="30" viewBox="0 0 100 30" fill="none" xmlns="http://www.w3.org/2000/svg">
<rect x="0.25" y="0.25" width="99.5" height="29.5" rx="4.75" fill="white"/>
<path d="M36.8608 22H38.4418V18.2926H42.0682V16.9673H38.4418V14.598H42.4517V13.2727H36.8608V22ZM43.8239 22H45.3665V15.4545H43.8239V22ZM44.5994 14.5256C45.0895 14.5256 45.4901 14.1506 45.4901 13.6903C45.4901 13.2259 45.0895 12.8509 44.5994 12.8509C44.1051 12.8509 43.7045 13.2259 43.7045 13.6903C43.7045 14.1506 44.1051 14.5256 44.5994 14.5256ZM46.9528 22H48.4954V18.152C48.4954 17.321 49.1218 16.733 49.9698 16.733C50.2298 16.733 50.5536 16.7798 50.6857 16.8224V15.4034C50.5451 15.3778 50.3022 15.3608 50.1317 15.3608C49.3817 15.3608 48.7553 15.7869 48.5167 16.5455H48.4485V15.4545H46.9528V22ZM54.3388 22.1278C55.8643 22.1278 56.9126 21.3821 57.1854 20.2443L55.745 20.0824C55.5362 20.6364 55.0249 20.9261 54.3601 20.9261C53.3629 20.9261 52.7024 20.2699 52.6896 19.1491H57.2493V18.6761C57.2493 16.3793 55.8686 15.3693 54.2578 15.3693C52.3828 15.3693 51.1598 16.7457 51.1598 18.7656C51.1598 20.8196 52.3658 22.1278 54.3388 22.1278ZM52.6939 18.1094C52.7408 17.2741 53.3587 16.571 54.2791 16.571C55.1655 16.571 55.7621 17.2188 55.7706 18.1094H52.6939ZM58.6225 22H60.1396V20.9688H60.229C60.4719 21.446 60.979 22.1151 62.104 22.1151C63.6467 22.1151 64.8015 20.892 64.8015 18.7358C64.8015 16.554 63.6126 15.3693 62.0998 15.3693C60.945 15.3693 60.4634 16.0639 60.229 16.5369H60.1651V13.2727H58.6225V22ZM60.1353 18.7273C60.1353 17.4574 60.6808 16.6349 61.6737 16.6349C62.7006 16.6349 63.229 17.5085 63.229 18.7273C63.229 19.9545 62.6921 20.8494 61.6737 20.8494C60.6893 20.8494 60.1353 19.9972 60.1353 18.7273ZM67.9964 22.1321C69.0234 22.1321 69.6371 21.6506 69.9183 21.1009H69.9695V22H71.4524V17.6193C71.4524 15.8892 70.0419 15.3693 68.7933 15.3693C67.4169 15.3693 66.3601 15.983 66.0192 17.1761L67.4595 17.3807C67.6129 16.9332 68.0476 16.5497 68.8018 16.5497C69.5178 16.5497 69.9098 16.9162 69.9098 17.5597V17.5852C69.9098 18.0284 69.4453 18.0497 68.2905 18.1733C67.0206 18.3097 65.8061 18.6889 65.8061 20.1634C65.8061 21.4503 66.7479 22.1321 67.9964 22.1321ZM68.397 20.9986C67.7536 20.9986 67.2933 20.7045 67.2933 20.1378C67.2933 19.5455 67.8089 19.2983 68.4993 19.2003C68.9041 19.1449 69.7138 19.0426 69.9141 18.8807V19.652C69.9141 20.3807 69.326 20.9986 68.397 20.9986ZM78.1768 17.1847C77.9638 16.0767 77.0774 15.3693 75.5433 15.3693C73.9666 15.3693 72.8928 16.1449 72.897 17.3551C72.8928 18.3097 73.4808 18.9403 74.7379 19.2003L75.8544 19.4347C76.4553 19.5668 76.7365 19.8097 76.7365 20.1804C76.7365 20.6278 76.2507 20.9645 75.5178 20.9645C74.8104 20.9645 74.3501 20.6577 74.218 20.0696L72.7138 20.2145C72.9055 21.4162 73.9155 22.1278 75.522 22.1278C77.1584 22.1278 78.3132 21.2798 78.3175 20.0398C78.3132 19.1065 77.7124 18.5355 76.4766 18.267L75.3601 18.0284C74.6953 17.8793 74.4311 17.6491 74.4354 17.2699C74.4311 16.8267 74.9212 16.5199 75.5646 16.5199C76.2763 16.5199 76.6513 16.9077 76.7706 17.3381L78.1768 17.1847ZM82.4872 22.1278C84.0128 22.1278 85.0611 21.3821 85.3338 20.2443L83.8935 20.0824C83.6847 20.6364 83.1733 20.9261 82.5085 20.9261C81.5114 20.9261 80.8509 20.2699 80.8381 19.1491H85.3977V18.6761C85.3977 16.3793 84.017 15.3693 82.4062 15.3693C80.5312 15.3693 79.3082 16.7457 79.3082 18.7656C79.3082 20.8196 80.5142 22.1278 82.4872 22.1278ZM80.8423 18.1094C80.8892 17.2741 81.5071 16.571 82.4276 16.571C83.3139 16.571 83.9105 17.2188 83.919 18.1094H80.8423Z" fill="#383B57"/>
<g clip-path="url(#clip0)">
<path d="M10 21.7367L10.1493 21.5504L17.2089 9.61176L17.2238 9.48536L14.1119 4.27553C13.851 3.83913 13.117 3.94948 13.0315 4.43802L10 21.7367Z" fill="#FFC24A"/>
<path d="M10.0879 21.5947L10.2007 21.3985L17.1865 9.58487L14.0822 4.35386C13.8242 3.92203 13.1691 4.03213 13.0844 4.51553L10.0879 21.5947Z" fill="#FFA712"/>
<g filter="url(#filter0_i)">
<path d="M10.0879 21.5947L10.2007 21.3985L17.1865 9.58487L14.0822 4.35386C13.8242 3.92203 13.1691 4.03213 13.0844 4.51553L10.0879 21.5947Z" fill="#F7A212"/>
</g>
<path d="M16.6054 9.58532L11.0561 18.9697L13.5769 4.60194L13.5769 4.60178C13.5776 4.59783 13.5783 4.59535 13.5788 4.59406L13.5794 4.59251C13.5808 4.59141 13.587 4.5869 13.5994 4.58486C13.6125 4.58271 13.6237 4.58479 13.6308 4.58784C13.634 4.58922 13.6369 4.59099 13.6397 4.5935C13.6424 4.59587 13.6471 4.60062 13.6527 4.60989C13.6528 4.61002 13.6529 4.61015 13.653 4.61028L16.6054 9.58532Z" stroke="#F7A212"/>
<path d="M19.4923 13.4258L21.8095 11.3109L19.4916 7.36731C19.2716 6.99401 18.6573 6.99288 18.4396 7.36731L17.2012 9.47206V9.65129L19.4922 13.4258H19.4923Z" fill="#F4BD62"/>
<path d="M19.45 13.3375L21.7028 11.2813L19.45 7.45829C19.2361 7.09539 18.7164 7.05735 18.5048 7.42131L17.2599 9.55878L17.2227 9.66807L19.45 13.3375Z" fill="#FFA50E"/>
<g filter="url(#filter1_i)">
<path d="M19.45 13.3375L21.7028 11.2813L19.45 7.45829C19.2361 7.09539 18.7164 7.05735 18.5048 7.42131L17.2599 9.55878L17.2227 9.66807L19.45 13.3375Z" fill="#F7A00F"/>
</g>
<path d="M10 21.7362L10.0676 21.6755L10.3135 21.5866L19.347 13.5654L19.4615 13.2877L17.2079 9.46045L10 21.7362Z" fill="#EE8212"/>
<path d="M19.7819 25.7815L27.9575 21.7178L25.6229 8.90301C25.5498 8.50207 24.9979 8.34359 24.6759 8.63104L10 21.7362L18.1287 25.7812C18.3813 25.9069 18.6659 25.9729 18.9553 25.973C19.2446 25.973 19.5292 25.9071 19.7819 25.7815Z" fill="#FDE068"/>
<path d="M27.8854 21.6842L25.5684 8.96667C25.496 8.56874 25.037 8.40412 24.7174 8.68944L10.0918 21.7117L18.1313 25.7166C18.382 25.8413 18.6644 25.9069 18.9515 25.9069C19.2387 25.907 19.5211 25.8416 19.7719 25.7169L27.8854 21.6841L27.8854 21.6842Z" fill="#FCCA3F"/>
<path d="M19.7818 25.6621C19.5291 25.7877 19.2445 25.8536 18.9552 25.8536C18.6658 25.8535 18.3813 25.7875 18.1286 25.6618L10.0654 21.675L10 21.7366L18.1286 25.7816C18.3813 25.9073 18.6658 25.9733 18.9552 25.9734C19.2446 25.9734 19.5292 25.9075 19.7819 25.7819L27.9575 21.7182L27.9374 21.6084L19.7819 25.6622L19.7818 25.6621Z" fill="#EEAB37"/>
</g>
<rect x="0.25" y="0.25" width="99.5" height="29.5" rx="4.75" stroke="#EBEBEB" stroke-width="0.5"/>
<defs>
<filter id="filter0_i" x="10.0879" y="4.08398" width="7.09861" height="17.5107" filterUnits="userSpaceOnUse" color-interpolation-filters="sRGB">
<feFlood flood-opacity="0" result="BackgroundImageFix"/>
<feBlend mode="normal" in="SourceGraphic" in2="BackgroundImageFix" result="shape"/>
<feColorMatrix in="SourceAlpha" type="matrix" values="0 0 0 0 0 0 0 0 0 0 0 0 0 0 0 0 0 0 127 0" result="hardAlpha"/>
<feOffset/>
<feGaussianBlur stdDeviation="124.619"/>
<feComposite in2="hardAlpha" operator="arithmetic" k2="-1" k3="1"/>
<feColorMatrix type="matrix" values="0 0 0 0 0 0 0 0 0 0 0 0 0 0 0 0 0 0 0.06 0"/>
<feBlend mode="normal" in2="shape" result="effect1_innerShadow"/>
</filter>
<filter id="filter1_i" x="17.2227" y="7.1665" width="4.4801" height="6.17101" filterUnits="userSpaceOnUse" color-interpolation-filters="sRGB">
<feFlood flood-opacity="0" result="BackgroundImageFix"/>
<feBlend mode="normal" in="SourceGraphic" in2="BackgroundImageFix" result="shape"/>
<feColorMatrix in="SourceAlpha" type="matrix" values="0 0 0 0 0 0 0 0 0 0 0 0 0 0 0 0 0 0 127 0" result="hardAlpha"/>
<feOffset dx="7.12109" dy="-64.0898"/>
<feGaussianBlur stdDeviation="24.9238"/>
<feComposite in2="hardAlpha" operator="arithmetic" k2="-1" k3="1"/>
<feColorMatrix type="matrix" values="0 0 0 0 0 0 0 0 0 0 0 0 0 0 0 0 0 0 0.09 0"/>
<feBlend mode="normal" in2="shape" result="effect1_innerShadow"/>
</filter>
<clipPath id="clip0">
<rect width="18" height="22" fill="white" transform="translate(10 4)"/>
</clipPath>
</defs>
</svg>
