<svg width="100" height="30" viewBox="0 0 100 30" fill="none" xmlns="http://www.w3.org/2000/svg">
<rect x="0.25" y="0.25" width="99.5" height="29.5" rx="4.75" fill="white"/>
<path d="M12.6543 7.83412C17.7705 1.88006 27.2574 3.05492 30.8026 10.0105C28.3057 10.0119 24.3973 10.0091 22.2801 10.0105C20.7448 10.0105 19.7529 9.97609 18.6799 10.5415C17.4184 11.206 16.465 12.4372 16.1335 13.8845L12.6543 7.83412Z" fill="#F44336"/>
<path d="M17.3418 15.0061C17.3418 17.0242 18.983 18.6654 20.9998 18.6654C23.0166 18.6654 24.6578 17.0242 24.6578 15.0061C24.6578 12.9879 23.0166 11.3467 20.9998 11.3467C18.9816 11.3453 17.3418 12.9879 17.3418 15.0061Z" fill="#2196F3"/>
<path d="M22.421 19.7944C20.3684 20.4038 17.9651 19.7284 16.6499 17.4557C15.6456 15.7223 12.9905 11.0986 11.7854 8.99512C7.55922 15.4719 11.2007 24.2971 18.8717 25.8035L22.421 19.7944Z" fill="#4CAF50"/>
<path d="M24.3897 11.3451C26.0997 12.9354 26.4726 15.5108 25.3142 17.5069C24.442 19.0119 21.6562 23.7127 20.3066 25.9881C28.2101 26.4751 33.9715 18.7299 31.3687 11.3438L24.3897 11.3451Z" fill="#FFC107"/>
<path d="M48.331 14.2173C48.0625 12.2784 46.571 11.1534 44.6364 11.1534C42.3565 11.1534 40.6392 12.8153 40.6392 15.6364C40.6392 18.4531 42.3352 20.1193 44.6364 20.1193C46.7116 20.1193 48.0881 18.777 48.331 17.1108L46.7372 17.1023C46.5369 18.125 45.7017 18.7003 44.6577 18.7003C43.2429 18.7003 42.2287 17.6392 42.2287 15.6364C42.2287 13.6676 43.2344 12.5724 44.6619 12.5724C45.723 12.5724 46.554 13.1733 46.7372 14.2173H48.331ZM51.2532 16.1648C51.2532 15.2188 51.8413 14.6733 52.668 14.6733C53.4776 14.6733 53.9549 15.1889 53.9549 16.071V20H55.4975V15.8324C55.4975 14.2514 54.6026 13.3693 53.2433 13.3693C52.2376 13.3693 51.5984 13.8253 51.2958 14.5668H51.2191V11.2727H49.7106V20H51.2532V16.1648ZM57.07 20H58.6126V16.152C58.6126 15.321 59.239 14.733 60.087 14.733C60.3469 14.733 60.6708 14.7798 60.8029 14.8224V13.4034C60.6623 13.3778 60.4194 13.3608 60.2489 13.3608C59.4989 13.3608 58.8725 13.7869 58.6339 14.5455H58.5657V13.4545H57.07V20ZM64.4134 20.1278C66.331 20.1278 67.5497 18.777 67.5497 16.7528C67.5497 14.7244 66.331 13.3693 64.4134 13.3693C62.4957 13.3693 61.277 14.7244 61.277 16.7528C61.277 18.777 62.4957 20.1278 64.4134 20.1278ZM64.4219 18.892C63.3608 18.892 62.8409 17.946 62.8409 16.7486C62.8409 15.5511 63.3608 14.5923 64.4219 14.5923C65.4659 14.5923 65.9858 15.5511 65.9858 16.7486C65.9858 17.946 65.4659 18.892 64.4219 18.892ZM68.859 20H70.4016V16.0199C70.4016 15.2145 70.9386 14.669 71.6033 14.669C72.2553 14.669 72.7028 15.108 72.7028 15.7812V20H74.2156V15.9176C74.2156 15.1804 74.6545 14.669 75.4002 14.669C76.0224 14.669 76.5167 15.0355 76.5167 15.8452V20H78.0636V15.6065C78.0636 14.1449 77.2198 13.3693 76.0181 13.3693C75.0678 13.3693 74.3434 13.8381 74.0536 14.5668H73.9854C73.734 13.8253 73.0991 13.3693 72.217 13.3693C71.3391 13.3693 70.6829 13.821 70.4102 14.5668H70.3335V13.4545H68.859V20ZM82.5263 20.1278C84.0518 20.1278 85.1001 19.3821 85.3729 18.2443L83.9325 18.0824C83.7237 18.6364 83.2124 18.9261 82.5476 18.9261C81.5504 18.9261 80.8899 18.2699 80.8771 17.1491H85.4368V16.6761C85.4368 14.3793 84.0561 13.3693 82.4453 13.3693C80.5703 13.3693 79.3473 14.7457 79.3473 16.7656C79.3473 18.8196 80.5533 20.1278 82.5263 20.1278ZM80.8814 16.1094C80.9283 15.2741 81.5462 14.571 82.4666 14.571C83.353 14.571 83.9496 15.2188 83.9581 16.1094H80.8814Z" fill="#383B57"/>
<rect x="0.25" y="0.25" width="99.5" height="29.5" rx="4.75" stroke="#EBEBEB" stroke-width="0.5"/>
</svg>
