<svg width="100" height="30" viewBox="0 0 100 30" fill="none" xmlns="http://www.w3.org/2000/svg">
<rect x="0.25" y="0.25" width="99.5" height="29.5" rx="4.75" fill="white"/>
<path d="M41.331 13.2173C41.0625 11.2784 39.571 10.1534 37.6364 10.1534C35.3565 10.1534 33.6392 11.8153 33.6392 14.6364C33.6392 17.4531 35.3352 19.1193 37.6364 19.1193C39.7116 19.1193 41.0881 17.777 41.331 16.1108L39.7372 16.1023C39.5369 17.125 38.7017 17.7003 37.6577 17.7003C36.2429 17.7003 35.2287 16.6392 35.2287 14.6364C35.2287 12.6676 36.2344 11.5724 37.6619 11.5724C38.723 11.5724 39.554 12.1733 39.7372 13.2173H41.331ZM47.5217 12.6719H49.043C49.0131 11.1974 47.756 10.1534 45.8981 10.1534C44.0657 10.1534 42.6893 11.1847 42.6935 12.7273C42.6935 13.9801 43.5842 14.7003 45.0202 15.071L46.0131 15.3267C46.9549 15.5653 47.5771 15.8594 47.5813 16.5369C47.5771 17.2827 46.8697 17.7812 45.8384 17.7812C44.8498 17.7812 44.0827 17.3381 44.0188 16.4219H42.4634C42.5273 18.1562 43.8185 19.1321 45.8512 19.1321C47.9435 19.1321 49.158 18.0881 49.1623 16.5497C49.158 15.0369 47.9094 14.3466 46.5969 14.0355L45.7788 13.831C45.0629 13.6605 44.2873 13.358 44.2958 12.6293C44.3001 11.973 44.8881 11.4915 45.8768 11.4915C46.8185 11.4915 47.4407 11.9304 47.5217 12.6719ZM55.3146 12.6719H56.8359C56.8061 11.1974 55.549 10.1534 53.6911 10.1534C51.8587 10.1534 50.4822 11.1847 50.4865 12.7273C50.4865 13.9801 51.3771 14.7003 52.8132 15.071L53.8061 15.3267C54.7479 15.5653 55.37 15.8594 55.3743 16.5369C55.37 17.2827 54.6626 17.7812 53.6314 17.7812C52.6428 17.7812 51.8757 17.3381 51.8118 16.4219H50.2564C50.3203 18.1562 51.6115 19.1321 53.6442 19.1321C55.7365 19.1321 56.951 18.0881 56.9553 16.5497C56.951 15.0369 55.7024 14.3466 54.3899 14.0355L53.5717 13.831C52.8558 13.6605 52.0803 13.358 52.0888 12.6293C52.093 11.973 52.6811 11.4915 53.6697 11.4915C54.6115 11.4915 55.2337 11.9304 55.3146 12.6719ZM61.4116 19.1193C63.2781 19.1193 64.6374 18.0497 64.6332 16.5753C64.6374 15.4844 63.9556 14.7003 62.7326 14.5256V14.4574C63.6786 14.2528 64.3136 13.5497 64.3093 12.5696C64.3136 11.2401 63.18 10.1534 61.4371 10.1534C59.7411 10.1534 58.4286 11.1634 58.3945 12.625H59.9158C59.9414 11.892 60.6232 11.4361 61.4286 11.4361C62.2425 11.4361 62.7837 11.9304 62.7795 12.6634C62.7837 13.4261 62.1531 13.9332 61.2496 13.9332H60.4783V15.152H61.2496C62.3533 15.152 63.0096 15.706 63.0053 16.4943C63.0096 17.2656 62.3406 17.794 61.4073 17.794C60.5295 17.794 59.8519 17.3381 59.8136 16.6264H58.2113C58.2539 18.1009 59.5707 19.1193 61.4116 19.1193Z" fill="#383B57"/>
<g clip-path="url(#clip0)">
<path d="M23.3209 4.81406H21.9108L23.3776 6.27408V6.96845H20.3558V6.15527H21.8225L20.3558 4.69525V4H23.3219L23.3209 4.81406ZM19.7558 4.81406H18.3438L19.8125 6.27408V6.96845H16.7897V6.15527H18.2565L16.7897 4.69525V4H19.7558V4.81406ZM16.2253 4.8475H14.7039V6.12183H16.2253V6.96933H13.6211V4H16.2253V4.8475Z" fill="#131313"/>
<path d="M11.5474 24.2334L10 8.32422H27L25.4507 24.2307L18.4894 25.9997L11.5474 24.2334Z" fill="#1572B6"/>
<path d="M18.5 24.6478L24.1251 23.2177L25.4478 9.625H18.5V24.6478Z" fill="#33A9DC"/>
<path d="M18.5 15.3893H21.3164L21.5103 13.3916H18.5V11.4414H23.8371L23.7862 11.965L23.2631 17.3422H18.5V15.3893Z" fill="white"/>
<path d="M18.5118 20.4565H18.5022L16.1322 19.8695L15.9805 18.3135H13.8457L14.1442 21.3771L18.5041 22.4895H18.5166V20.4565H18.5118Z" fill="#EBEBEB"/>
<path d="M21.136 17.2558L20.8797 19.8669L18.5059 20.4539V22.4869L22.8686 21.378L22.9003 21.048L23.2709 17.2549H21.136V17.2558Z" fill="white"/>
<path d="M18.5071 11.4414V13.3925H13.3678L13.3236 12.9542L13.2267 11.965L13.1758 11.4414H18.5071ZM18.4994 15.3893V17.3404H16.1563L16.115 16.9021L16.018 15.913L15.9672 15.3893H18.4984H18.4994Z" fill="#EBEBEB"/>
</g>
<rect x="0.25" y="0.25" width="99.5" height="29.5" rx="4.75" stroke="#EBEBEB" stroke-width="0.5"/>
<defs>
<clipPath id="clip0">
<rect width="17" height="22" fill="white" transform="translate(10 4)"/>
</clipPath>
</defs>
</svg>
