<svg width="100" height="30" viewBox="0 0 100 30" fill="none" xmlns="http://www.w3.org/2000/svg">
<rect x="0.25" y="0.25" width="99.5" height="29.5" rx="4.75" fill="white"/>
<path d="M46.7074 14.0597H48.3182C48.0497 12.3466 46.5668 11.1534 44.6364 11.1534C42.3523 11.1534 40.6392 12.8324 40.6392 15.6449C40.6392 18.4062 42.2756 20.1193 44.6832 20.1193C46.8438 20.1193 48.3906 18.7301 48.3906 16.4801V15.4318H44.8494V16.6676H46.8608C46.8352 17.9119 46.0043 18.7003 44.6918 18.7003C43.2301 18.7003 42.2287 17.6051 42.2287 15.6278C42.2287 13.6634 43.2472 12.5724 44.6577 12.5724C45.7102 12.5724 46.4261 13.1349 46.7074 14.0597ZM50.2614 20H51.804V13.4545H50.2614V20ZM51.0369 12.5256C51.527 12.5256 51.9276 12.1506 51.9276 11.6903C51.9276 11.2259 51.527 10.8509 51.0369 10.8509C50.5426 10.8509 50.142 11.2259 50.142 11.6903C50.142 12.1506 50.5426 12.5256 51.0369 12.5256ZM56.6587 13.4545H55.3675V11.8864H53.8249V13.4545H52.896V14.6477H53.8249V18.2869C53.8164 19.5185 54.7113 20.1236 55.8704 20.0895C56.3093 20.0767 56.6119 19.9915 56.7781 19.9361L56.5181 18.7301C56.4329 18.7514 56.2582 18.7898 56.0664 18.7898C55.6786 18.7898 55.3675 18.6534 55.3675 18.0312V14.6477H56.6587V13.4545Z" fill="#383B57"/>
<path d="M27.875 26H14.125C11.8466 26 10 24.1534 10 21.875V8.125C10 5.84663 11.8466 4 14.125 4H27.875C30.1534 4 32 5.84663 32 8.125V21.875C32 24.1534 30.1534 26 27.875 26Z" fill="#FFE6E2"/>
<path d="M20.4196 12.169C20.003 12.336 19.5547 12.4584 19.0982 12.4584C17.794 11.6974 16.0244 12.49 16.0244 14.1579H16.0251C16.0251 14.7794 16.4177 15.6312 17.0309 15.8402V15.865C16.5751 16.0685 16.4493 17.1073 17.055 17.4806V17.5054C16.3929 17.7267 15.957 18.1509 15.957 18.8852C15.957 20.1495 17.1395 20.5008 18.1749 20.5008C19.4358 20.5008 20.3735 20.0415 20.3735 18.6342C20.3735 16.9031 17.9253 17.5418 17.9253 16.6013C17.9253 16.2699 18.1 16.142 18.4025 16.0788C19.4083 15.8897 20.0387 15.0964 20.0387 14.0603C20.0387 13.8809 20.0023 13.7117 19.9418 13.5447C20.104 13.5082 20.2622 13.4635 20.4189 13.4092V12.169H20.4196ZM18.1508 18.1805C18.5627 18.1798 19.1491 18.254 19.1491 18.7937C19.1491 19.3293 18.6768 19.4393 18.2354 19.4393C17.816 19.4393 17.1856 19.3726 17.1856 18.8205C17.1883 18.274 17.7218 18.1805 18.1508 18.1805ZM18.0732 15.0008C17.5403 15.0001 17.3148 14.6811 17.3148 14.1703C17.3148 12.9596 18.793 12.972 18.793 14.1579C18.793 14.657 18.5991 15.0008 18.0732 15.0008Z" fill="#FC573B"/>
<path d="M26.0419 17.4187V16.2156C25.848 16.351 25.5695 16.4191 25.3317 16.4191C24.8834 16.4191 24.803 15.977 24.803 15.6133V13.3769C25.5716 13.3769 26.0391 13.4016 26.0391 13.4016V12.2349H24.803C24.803 11.8988 24.7906 11.5626 24.8394 11.2236H23.4651C23.5084 11.4739 23.5015 11.6877 23.5015 12.2349H22.9199V13.4016C23.3249 13.3377 23.3317 13.3769 23.5015 13.3769V13.4016H23.4899V15.5549C23.4899 16.6233 23.6425 17.6593 24.9391 17.6593C25.3028 17.6593 25.7201 17.5981 26.0419 17.4187Z" fill="#FC573B"/>
<path d="M21.6837 9.5C21.199 9.5 20.8477 9.92694 20.8477 10.4013C20.8477 10.8681 21.2038 11.2903 21.6837 11.2903C22.1512 11.2903 22.5025 10.8606 22.5025 10.4013C22.5032 9.94206 22.1635 9.5 21.6837 9.5Z" fill="#FD907E"/>
<path d="M21.0078 12.2305C21.0511 12.5935 21.0463 17.1344 21.0078 17.5785H22.3533C22.3148 17.1372 22.3099 12.5887 22.3533 12.2305H21.0078Z" fill="#FC573B"/>
<rect x="0.25" y="0.25" width="99.5" height="29.5" rx="4.75" stroke="#EBEBEB" stroke-width="0.5"/>
</svg>
