<svg width="100" height="30" viewBox="0 0 100 30" fill="none" xmlns="http://www.w3.org/2000/svg">
<rect x="0.25" y="0.25" width="99.5" height="29.5" rx="4.75" fill="white"/>
<path d="M46.7074 14.0597H48.3182C48.0497 12.3466 46.5668 11.1534 44.6364 11.1534C42.3523 11.1534 40.6392 12.8324 40.6392 15.6449C40.6392 18.4062 42.2756 20.1193 44.6832 20.1193C46.8438 20.1193 48.3906 18.7301 48.3906 16.4801V15.4318H44.8494V16.6676H46.8608C46.8352 17.9119 46.0043 18.7003 44.6918 18.7003C43.2301 18.7003 42.2287 17.6051 42.2287 15.6278C42.2287 13.6634 43.2472 12.5724 44.6577 12.5724C45.7102 12.5724 46.4261 13.1349 46.7074 14.0597ZM50.2614 20H51.804V13.4545H50.2614V20ZM51.0369 12.5256C51.527 12.5256 51.9276 12.1506 51.9276 11.6903C51.9276 11.2259 51.527 10.8509 51.0369 10.8509C50.5426 10.8509 50.142 11.2259 50.142 11.6903C50.142 12.1506 50.5426 12.5256 51.0369 12.5256ZM56.6587 13.4545H55.3675V11.8864H53.8249V13.4545H52.896V14.6477H53.8249V18.2869C53.8164 19.5185 54.7113 20.1236 55.8704 20.0895C56.3093 20.0767 56.6119 19.9915 56.7781 19.9361L56.5181 18.7301C56.4329 18.7514 56.2582 18.7898 56.0664 18.7898C55.6786 18.7898 55.3675 18.6534 55.3675 18.0312V14.6477H56.6587V13.4545ZM59.6321 16.1648C59.6321 15.2188 60.2202 14.6733 61.0469 14.6733C61.8565 14.6733 62.3338 15.1889 62.3338 16.071V20H63.8764V15.8324C63.8764 14.2514 62.9815 13.3693 61.6222 13.3693C60.6165 13.3693 59.9773 13.8253 59.6747 14.5668H59.598V11.2727H58.0895V20H59.6321V16.1648ZM69.6207 17.2472C69.6207 18.2443 68.9091 18.7386 68.2273 18.7386C67.4858 18.7386 66.9915 18.2145 66.9915 17.3835V13.4545H65.4489V17.6222C65.4489 19.1946 66.3438 20.0852 67.6307 20.0852C68.6108 20.0852 69.3011 19.5696 69.5994 18.8366H69.6676V20H71.1634V13.4545H69.6207V17.2472ZM72.8178 20H74.3349V18.9688H74.4244C74.6673 19.446 75.1744 20.1151 76.2994 20.1151C77.842 20.1151 78.9968 18.892 78.9968 16.7358C78.9968 14.554 77.8079 13.3693 76.2951 13.3693C75.1403 13.3693 74.6587 14.0639 74.4244 14.5369H74.3604V11.2727H72.8178V20ZM74.3306 16.7273C74.3306 15.4574 74.8761 14.6349 75.869 14.6349C76.896 14.6349 77.4244 15.5085 77.4244 16.7273C77.4244 17.9545 76.8874 18.8494 75.869 18.8494C74.8846 18.8494 74.3306 17.9972 74.3306 16.7273Z" fill="#383B57"/>
<path d="M21 4C14.9225 4 10 8.84 10 14.8093C10 19.5861 13.1515 23.6368 17.5213 25.065C18.0712 25.1667 18.2729 24.8322 18.2729 24.5452C18.2729 24.2886 18.2638 23.6084 18.2592 22.7073C15.1993 23.3591 14.554 21.2572 14.554 21.2572C14.0535 20.0096 13.3303 19.6759 13.3303 19.6759C12.3338 19.0058 13.4073 19.0196 13.4073 19.0196C14.5118 19.0948 15.0921 20.1333 15.0921 20.1333C16.0729 21.7861 17.667 21.3085 18.2958 21.0326C18.3948 20.3332 18.6781 19.8574 18.9925 19.587C16.5496 19.3166 13.982 18.3871 13.982 14.2456C13.982 13.0658 14.4083 12.1015 15.1141 11.3452C14.9903 11.0721 14.6191 9.973 15.2103 8.48433C15.2103 8.48433 16.1316 8.19467 18.2353 9.59258C19.1153 9.35242 20.0503 9.23325 20.9853 9.22775C21.9203 9.23325 22.8553 9.35242 23.7353 9.59258C25.8253 8.19467 26.7466 8.48433 26.7466 8.48433C27.3378 9.973 26.9666 11.0721 26.8566 11.3452C27.5578 12.1015 27.9841 13.0658 27.9841 14.2456C27.9841 18.3981 25.4128 19.312 22.9653 19.5778C23.3503 19.9023 23.7078 20.5651 23.7078 21.578C23.7078 23.0245 23.6941 24.1868 23.6941 24.5379C23.6941 24.8212 23.8866 25.1594 24.4503 25.0513C28.8512 23.6322 32 19.5788 32 14.8093C32 8.84 27.0748 4 21 4Z" fill="#212121"/>
<rect x="0.25" y="0.25" width="99.5" height="29.5" rx="4.75" stroke="#EBEBEB" stroke-width="0.5"/>
</svg>
