<svg width="100" height="30" viewBox="0 0 100 30" fill="none" xmlns="http://www.w3.org/2000/svg">
<rect x="0.25" y="0.25" width="99.5" height="29.5" rx="4.75" fill="white"/>
<path d="M13.5489 19.7183L12.8477 19.3368L20.6594 6.58691L21.3606 6.96843L13.5489 19.7183Z" fill="#E535AB"/>
<path d="M12.6816 18.3179H28.3051V19.0809H12.6816V18.3179Z" fill="#E535AB"/>
<path d="M20.8088 22.9997L12.9941 18.7479L13.399 18.0871L21.2137 22.3389L20.8088 22.9997ZM27.5974 11.9184L19.7827 7.66666L20.1876 7.00586L28.0023 11.2576L27.5974 11.9184Z" fill="#E535AB"/>
<path d="M13.4029 11.915L12.998 11.2542L20.8127 7.00244L21.2176 7.66319L13.4029 11.915Z" fill="#E535AB"/>
<path d="M27.4574 19.7188L19.6457 6.96891L20.3469 6.5874L28.1587 19.3373L27.4574 19.7188ZM13.3086 10.748H14.1183V19.2516H13.3086V10.748Z" fill="#E535AB"/>
<path d="M26.8887 10.7485H27.6984V19.2521H26.8887V10.7485Z" fill="#E535AB"/>
<path d="M20.67 22.676L20.3164 22.0988L27.1131 18.4009L27.4667 18.9781L20.67 22.676Z" fill="#E535AB"/>
<path d="M28.7678 19.5C28.2995 20.2676 27.2557 20.5296 26.4411 20.0884C25.6265 19.6471 25.3485 18.6634 25.8168 17.8958C26.285 17.1282 27.3289 16.8662 28.1435 17.3075C28.9629 17.7533 29.241 18.7324 28.7678 19.5ZM15.1784 12.1042C14.7101 12.8718 13.6662 13.1338 12.8517 12.6925C12.0371 12.2513 11.759 11.2676 12.2273 10.5C12.6956 9.73238 13.7394 9.47038 14.554 9.91164C15.3686 10.3575 15.6466 11.3366 15.1784 12.1042ZM12.2322 19.5C11.7639 18.7324 12.042 17.7533 12.8565 17.3075C13.6711 16.8662 14.7101 17.1282 15.1832 17.8958C15.6515 18.6634 15.3735 19.6425 14.5589 20.0884C13.7394 20.5296 12.7005 20.2676 12.2322 19.5ZM25.8216 12.1042C25.3534 11.3366 25.6314 10.3575 26.446 9.91164C27.2606 9.47038 28.2995 9.73238 28.7727 10.5C29.241 11.2676 28.9629 12.2467 28.1483 12.6925C27.3338 13.1338 26.2899 12.8718 25.8216 12.1042ZM20.5 24C19.5586 24 18.7977 23.2829 18.7977 22.3958C18.7977 21.5087 19.5586 20.7916 20.5 20.7916C21.4414 20.7916 22.2023 21.5087 22.2023 22.3958C22.2023 23.2783 21.4414 24 20.5 24ZM20.5 9.20838C19.5586 9.20838 18.7977 8.49132 18.7977 7.60419C18.7977 6.71706 19.5586 6 20.5 6C21.4414 6 22.2023 6.71706 22.2023 7.60419C22.2023 8.49132 21.4414 9.20838 20.5 9.20838Z" fill="#E535AB"/>
<path d="M43.7074 13.0597H45.3182C45.0497 11.3466 43.5668 10.1534 41.6364 10.1534C39.3523 10.1534 37.6392 11.8324 37.6392 14.6449C37.6392 17.4062 39.2756 19.1193 41.6832 19.1193C43.8438 19.1193 45.3906 17.7301 45.3906 15.4801V14.4318H41.8494V15.6676H43.8608C43.8352 16.9119 43.0043 17.7003 41.6918 17.7003C40.2301 17.7003 39.2287 16.6051 39.2287 14.6278C39.2287 12.6634 40.2472 11.5724 41.6577 11.5724C42.7102 11.5724 43.4261 12.1349 43.7074 13.0597ZM46.8512 19H48.3938V15.152C48.3938 14.321 49.0202 13.733 49.8683 13.733C50.1282 13.733 50.4521 13.7798 50.5842 13.8224V12.4034C50.4435 12.3778 50.2006 12.3608 50.0302 12.3608C49.2802 12.3608 48.6538 12.7869 48.4151 13.5455H48.3469V12.4545H46.8512V19ZM53.3636 19.1321C54.3906 19.1321 55.0043 18.6506 55.2855 18.1009H55.3366V19H56.8196V14.6193C56.8196 12.8892 55.4091 12.3693 54.1605 12.3693C52.7841 12.3693 51.7273 12.983 51.3864 14.1761L52.8267 14.3807C52.9801 13.9332 53.4148 13.5497 54.169 13.5497C54.8849 13.5497 55.277 13.9162 55.277 14.5597V14.5852C55.277 15.0284 54.8125 15.0497 53.6577 15.1733C52.3878 15.3097 51.1733 15.6889 51.1733 17.1634C51.1733 18.4503 52.1151 19.1321 53.3636 19.1321ZM53.7642 17.9986C53.1207 17.9986 52.6605 17.7045 52.6605 17.1378C52.6605 16.5455 53.1761 16.2983 53.8665 16.2003C54.2713 16.1449 55.081 16.0426 55.2812 15.8807V16.652C55.2812 17.3807 54.6932 17.9986 53.7642 17.9986ZM58.3707 21.4545H59.9134V17.9688H59.9773C60.2202 18.446 60.7273 19.1151 61.8523 19.1151C63.3949 19.1151 64.5497 17.892 64.5497 15.7358C64.5497 13.554 63.3608 12.3693 61.848 12.3693C60.6932 12.3693 60.2116 13.0639 59.9773 13.5369H59.8878V12.4545H58.3707V21.4545ZM59.8835 15.7273C59.8835 14.4574 60.429 13.6349 61.4219 13.6349C62.4489 13.6349 62.9773 14.5085 62.9773 15.7273C62.9773 16.9545 62.4403 17.8494 61.4219 17.8494C60.4375 17.8494 59.8835 16.9972 59.8835 15.7273ZM67.4134 15.1648C67.4134 14.2188 68.0014 13.6733 68.8281 13.6733C69.6378 13.6733 70.1151 14.1889 70.1151 15.071V19H71.6577V14.8324C71.6577 13.2514 70.7628 12.3693 69.4034 12.3693C68.3977 12.3693 67.7585 12.8253 67.456 13.5668H67.3793V10.2727H65.8707V19H67.4134V15.1648ZM81.0966 14.6364C81.0966 11.8153 79.375 10.1534 77.0866 10.1534C74.794 10.1534 73.0767 11.8153 73.0767 14.6364C73.0767 17.4531 74.794 19.1193 77.0866 19.1193C77.6406 19.1193 78.1605 19.0213 78.6335 18.8338L79.3537 19.75H80.8878L79.6776 18.1989C80.5554 17.4318 81.0966 16.2173 81.0966 14.6364ZM76.5497 16.0682L77.7301 17.6193C77.5256 17.6747 77.3125 17.7003 77.0866 17.7003C75.6676 17.7003 74.6662 16.6222 74.6662 14.6364C74.6662 12.6506 75.6676 11.5724 77.0866 11.5724C78.5099 11.5724 79.5071 12.6506 79.5071 14.6364C79.5071 15.7102 79.2173 16.5156 78.723 17.0312L77.9815 16.0682H76.5497ZM82.603 19H88.0277V17.6747H84.1839V10.2727H82.603V19Z" fill="#383B57"/>
<rect x="0.25" y="0.25" width="99.5" height="29.5" rx="4.75" stroke="#EBEBEB" stroke-width="0.5"/>
</svg>
