<svg width="100" height="30" viewBox="0 0 100 30" fill="none" xmlns="http://www.w3.org/2000/svg">
<rect x="0.25" y="0.25" width="99.5" height="29.5" rx="4.75" fill="white"/>
<path d="M11.5471 24.233L10 8.32324H27L25.4512 24.2305L18.4896 26.0001L11.5471 24.233Z" fill="#E44D26"/>
<path d="M18.5 24.6483L24.1253 23.2183L25.4489 9.625H18.5V24.6483Z" fill="#F16529"/>
<path d="M18.4987 15.5256H15.6826L15.4881 13.5275H18.4987V11.5762H13.1621L13.2131 12.0997L13.7362 17.4768H18.4987V15.5256ZM18.4987 20.5932L18.4894 20.5955L16.1192 20.0087L15.9676 18.4525H13.8313L14.1295 21.5163L18.489 22.6259L18.4987 22.6234V20.5932Z" fill="#EBEBEB"/>
<path d="M11.582 4H12.6635V4.97969H13.6529V4H14.7344V6.96676H13.6529V5.97333H12.6635V6.96676H11.5821L11.582 4ZM16.1567 4.98387H15.2047V4H18.191V4.98387H17.2384V6.96676H16.1568V4.98387H16.1567ZM18.6648 4H19.7926L20.4864 5.04246L21.1794 4H22.3076V6.96676H21.2303V5.49624L20.4862 6.55109H20.4677L19.7231 5.49624V6.96676H18.6648V4H18.6648ZM22.8458 4H23.9276V5.98615H25.4486V6.96676H22.8458V4Z" fill="black"/>
<path d="M18.4922 15.5256V17.4768H21.1129L20.8658 20.0075L18.4922 20.5948V22.6249L22.8552 21.5163L22.8871 21.1866L23.3873 16.0496L23.4392 15.5256H22.8657H18.4922ZM18.4922 11.5762V13.5275H23.6329L23.6755 13.0888L23.7725 12.0997L23.8234 11.5762H18.4922Z" fill="white"/>
<path d="M33.8608 20H35.4418V16.2926H39.4858V20H41.071V11.2727H39.4858V14.9673H35.4418V11.2727H33.8608V20ZM42.407 12.598H45.1044V20H46.6726V12.598H49.37V11.2727H42.407V12.598ZM50.7124 11.2727V20H52.2294V13.9915H52.3104L54.7223 19.9744H55.8558L58.2678 14.0043H58.3487V20H59.8658V11.2727H57.9311L55.3402 17.5966H55.2379L52.647 11.2727H50.7124ZM61.5874 20H67.0121V18.6747H63.1683V11.2727H61.5874V20ZM71.3331 20.1193C73.1783 20.1193 74.4652 18.8665 74.4652 17.1321C74.4652 15.4531 73.2976 14.2429 71.7124 14.2429C71.005 14.2429 70.3786 14.5241 70.0547 14.9077H70.0036L70.255 12.5938H74.0092V11.2727H68.9467L68.4908 15.7727L69.9183 16.0071C70.2124 15.6832 70.7663 15.4659 71.2905 15.4702C72.2493 15.4744 72.9396 16.1818 72.9354 17.1705C72.9396 18.1463 72.2663 18.8409 71.3331 18.8409C70.5447 18.8409 69.9098 18.3423 69.8544 17.6264H68.3203C68.3629 19.0753 69.6286 20.1193 71.3331 20.1193Z" fill="#383B57"/>
<rect x="0.25" y="0.25" width="99.5" height="29.5" rx="4.75" stroke="#EBEBEB" stroke-width="0.5"/>
</svg>
