<svg width="105" height="30" viewBox="0 0 105 30" fill="none" xmlns="http://www.w3.org/2000/svg">
<rect x="0.25" y="0.25" width="104.5" height="29.5" rx="4.75" fill="white"/>
<path d="M38.304 10.2727V16.4091C38.2997 17.3295 37.8736 17.8196 37.1151 17.8196C36.4077 17.8196 35.9347 17.3892 35.9219 16.6818H34.3494C34.3494 18.2926 35.5256 19.1193 37.0554 19.1193C38.7386 19.1193 39.8679 18.0966 39.8722 16.4091V10.2727H38.304ZM43.4027 19.1321C44.4297 19.1321 45.0433 18.6506 45.3246 18.1009H45.3757V19H46.8587V14.6193C46.8587 12.8892 45.4482 12.3693 44.1996 12.3693C42.8232 12.3693 41.7663 12.983 41.4254 14.1761L42.8658 14.3807C43.0192 13.9332 43.4538 13.5497 44.2081 13.5497C44.924 13.5497 45.3161 13.9162 45.3161 14.5597V14.5852C45.3161 15.0284 44.8516 15.0497 43.6967 15.1733C42.4268 15.3097 41.2124 15.6889 41.2124 17.1634C41.2124 18.4503 42.1541 19.1321 43.4027 19.1321ZM43.8033 17.9986C43.1598 17.9986 42.6996 17.7045 42.6996 17.1378C42.6996 16.5455 43.2152 16.2983 43.9055 16.2003C44.3104 16.1449 45.12 16.0426 45.3203 15.8807V16.652C45.3203 17.3807 44.7322 17.9986 43.8033 17.9986ZM54.022 12.4545H52.3814L50.8729 17.3168H50.8047L49.3004 12.4545H47.6555L49.9865 19H51.6911L54.022 12.4545ZM56.7855 19.1321C57.8125 19.1321 58.4261 18.6506 58.7074 18.1009H58.7585V19H60.2415V14.6193C60.2415 12.8892 58.831 12.3693 57.5824 12.3693C56.206 12.3693 55.1491 12.983 54.8082 14.1761L56.2486 14.3807C56.402 13.9332 56.8366 13.5497 57.5909 13.5497C58.3068 13.5497 58.6989 13.9162 58.6989 14.5597V14.5852C58.6989 15.0284 58.2344 15.0497 57.0795 15.1733C55.8097 15.3097 54.5952 15.6889 54.5952 17.1634C54.5952 18.4503 55.5369 19.1321 56.7855 19.1321ZM57.1861 17.9986C56.5426 17.9986 56.0824 17.7045 56.0824 17.1378C56.0824 16.5455 56.598 16.2983 57.2884 16.2003C57.6932 16.1449 58.5028 16.0426 58.7031 15.8807V16.652C58.7031 17.3807 58.1151 17.9986 57.1861 17.9986ZM66.9659 14.1847C66.7528 13.0767 65.8665 12.3693 64.3324 12.3693C62.7557 12.3693 61.6818 13.1449 61.6861 14.3551C61.6818 15.3097 62.2699 15.9403 63.527 16.2003L64.6435 16.4347C65.2443 16.5668 65.5256 16.8097 65.5256 17.1804C65.5256 17.6278 65.0398 17.9645 64.3068 17.9645C63.5994 17.9645 63.1392 17.6577 63.0071 17.0696L61.5028 17.2145C61.6946 18.4162 62.7045 19.1278 64.3111 19.1278C65.9474 19.1278 67.1023 18.2798 67.1065 17.0398C67.1023 16.1065 66.5014 15.5355 65.2656 15.267L64.1491 15.0284C63.4844 14.8793 63.2202 14.6491 63.2244 14.2699C63.2202 13.8267 63.7102 13.5199 64.3537 13.5199C65.0653 13.5199 65.4403 13.9077 65.5597 14.3381L66.9659 14.1847ZM71.2337 19.1278C72.8786 19.1278 73.9268 18.152 74.0376 16.7628H72.5632C72.4311 17.4659 71.924 17.8707 71.2464 17.8707C70.2834 17.8707 69.6612 17.0653 69.6612 15.7273C69.6612 14.4062 70.2962 13.6136 71.2464 13.6136C71.9879 13.6136 72.4439 14.0909 72.5632 14.7216H74.0376C73.9311 13.3026 72.8232 12.3693 71.2251 12.3693C69.3075 12.3693 68.0973 13.7543 68.0973 15.7528C68.0973 17.7344 69.2777 19.1278 71.2337 19.1278ZM75.3043 19H76.8469V15.152C76.8469 14.321 77.4734 13.733 78.3214 13.733C78.5813 13.733 78.9052 13.7798 79.0373 13.8224V12.4034C78.8967 12.3778 78.6538 12.3608 78.4833 12.3608C77.7333 12.3608 77.1069 12.7869 76.8683 13.5455H76.8001V12.4545H75.3043V19ZM80.0621 19H81.6048V12.4545H80.0621V19ZM80.8377 11.5256C81.3278 11.5256 81.7283 11.1506 81.7283 10.6903C81.7283 10.2259 81.3278 9.85085 80.8377 9.85085C80.3434 9.85085 79.9428 10.2259 79.9428 10.6903C79.9428 11.1506 80.3434 11.5256 80.8377 11.5256ZM83.1911 21.4545H84.7337V17.9688H84.7976C85.0405 18.446 85.5476 19.1151 86.6726 19.1151C88.2152 19.1151 89.37 17.892 89.37 15.7358C89.37 13.554 88.1811 12.3693 86.6683 12.3693C85.5135 12.3693 85.032 13.0639 84.7976 13.5369H84.7081V12.4545H83.1911V21.4545ZM84.7038 15.7273C84.7038 14.4574 85.2493 13.6349 86.2422 13.6349C87.2692 13.6349 87.7976 14.5085 87.7976 15.7273C87.7976 16.9545 87.2607 17.8494 86.2422 17.8494C85.2578 17.8494 84.7038 16.9972 84.7038 15.7273ZM93.9595 12.4545H92.6683V10.8864H91.1257V12.4545H90.1967V13.6477H91.1257V17.2869C91.1172 18.5185 92.0121 19.1236 93.1712 19.0895C93.6101 19.0767 93.9126 18.9915 94.0788 18.9361L93.8189 17.7301C93.7337 17.7514 93.5589 17.7898 93.3672 17.7898C92.9794 17.7898 92.6683 17.6534 92.6683 17.0312V13.6477H93.9595V12.4545Z" fill="#383B57"/>
<path d="M10 5H30V25H10V5Z" fill="#F0DB4F"/>
<path d="M28.3623 20.2303C28.2159 19.3178 27.6209 18.5516 25.8585 17.8368C25.2464 17.5554 24.5638 17.3539 24.3604 16.89C24.2882 16.6201 24.2787 16.468 24.3243 16.3045C24.4555 15.7741 25.0886 15.6087 25.5905 15.7608C25.9137 15.8691 26.2197 16.1182 26.4041 16.5155C27.2673 15.9566 27.2654 15.9604 27.868 15.5764C27.6475 15.2342 27.5296 15.0763 27.3851 14.93C26.8661 14.3501 26.1589 14.0516 25.0277 14.0745C24.8319 14.0992 24.6342 14.1258 24.4384 14.1505C23.8737 14.2931 23.3357 14.5897 23.0201 14.987C22.0733 16.0612 22.3433 17.9414 23.4954 18.7151C24.6304 19.5669 26.2977 19.7608 26.5106 20.5573C26.7178 21.5326 25.7939 21.8482 24.8756 21.7361C24.1988 21.5954 23.8224 21.2513 23.4156 20.6258C22.6665 21.0593 22.6665 21.0592 21.8966 21.5022C22.0791 21.9015 22.2711 22.0821 22.5772 22.4281C24.0258 23.8977 27.6513 23.8254 28.3015 21.6011C28.3281 21.525 28.503 21.0155 28.3623 20.2303ZM20.8718 14.1923H19.0011C19.0011 15.8083 18.9935 17.4128 18.9935 19.0288C18.9935 20.0573 19.0468 21.0003 18.8795 21.2893C18.6057 21.8577 17.8966 21.7874 17.5734 21.6771C17.2445 21.5155 17.0772 21.2854 16.8833 20.9604C16.83 20.8672 16.7901 20.795 16.7768 20.7893C16.2692 21.0992 15.7635 21.4109 15.2559 21.7208C15.5087 22.2398 15.8813 22.6904 16.3585 22.9832C17.0714 23.4109 18.0296 23.5421 19.0315 23.3121C19.6836 23.1219 20.2464 22.7284 20.541 22.1296C20.9669 21.3444 20.8756 20.3938 20.8718 19.3425C20.8813 17.6277 20.8718 15.9128 20.8718 14.1923Z" fill="#323330"/>
<rect x="0.25" y="0.25" width="104.5" height="29.5" rx="4.75" stroke="#EBEBEB" stroke-width="0.5"/>
</svg>
