<svg width="100" height="30" viewBox="0 0 100 30" fill="none" xmlns="http://www.w3.org/2000/svg">
<rect x="0.25" y="0.25" width="99.5" height="29.5" rx="4.75" fill="white"/>
<path d="M15.3451 5.00538C15.3021 5.00929 15.1652 5.02297 15.042 5.03275C12.2014 5.28882 9.54057 6.82134 7.85533 9.17681C6.91691 10.4865 6.31672 11.9721 6.08993 13.5457C6.00978 14.095 6 14.2572 6 15.002C6 15.7467 6.00978 15.909 6.08993 16.4582C6.63343 20.2133 9.30596 23.3683 12.9306 24.5372C13.5797 24.7464 14.2639 24.8891 15.042 24.9751C15.3451 25.0083 16.6549 25.0083 16.958 24.9751C18.3011 24.8265 19.4389 24.4942 20.5611 23.9215C20.7331 23.8335 20.7664 23.81 20.7429 23.7905C20.7273 23.7788 19.9941 22.7955 19.1144 21.607L17.5152 19.4471L15.5112 16.4817C14.4086 14.8514 13.5015 13.5183 13.4936 13.5183C13.4858 13.5164 13.478 14.8339 13.4741 16.4426C13.4682 19.2594 13.4663 19.3728 13.4311 19.4392C13.3803 19.535 13.3412 19.5741 13.259 19.6171C13.1965 19.6484 13.1417 19.6543 12.8465 19.6543H12.5083L12.4184 19.5976C12.3597 19.5604 12.3167 19.5116 12.2874 19.4549L12.2463 19.3669L12.2502 15.4476L12.2561 11.5264L12.3167 11.4502C12.348 11.4091 12.4145 11.3564 12.4614 11.3309C12.5415 11.2918 12.5728 11.2879 12.911 11.2879C13.3099 11.2879 13.3763 11.3036 13.48 11.417C13.5093 11.4482 14.5943 13.0824 15.8925 15.0508C17.1906 17.0193 18.9658 19.707 19.8377 21.0265L21.4213 23.425L21.5015 23.3722C22.2111 22.9109 22.9619 22.2541 23.5562 21.5699C24.8211 20.1175 25.6364 18.3465 25.9101 16.4582C25.9902 15.909 26 15.7467 26 15.002C26 14.2572 25.9902 14.095 25.9101 13.5457C25.3666 9.7906 22.694 6.63564 19.0694 5.4667C18.4301 5.2595 17.7498 5.1168 16.9873 5.03079C16.7996 5.01125 15.5073 4.98974 15.3451 5.00538ZM19.4389 11.0534C19.5327 11.1003 19.609 11.1902 19.6364 11.284C19.652 11.3349 19.6559 12.4217 19.652 14.871L19.6461 18.3856L19.0264 17.4356L18.4047 16.4856V13.9308C18.4047 12.279 18.4125 11.3505 18.4242 11.3055C18.4555 11.1961 18.5239 11.1101 18.6178 11.0592C18.6979 11.0182 18.7273 11.0143 19.0342 11.0143C19.3236 11.0143 19.3744 11.0182 19.4389 11.0534Z" fill="black"/>
<path d="M42.0327 11.2727H40.4602V17.2216H40.3835L36.2756 11.2727H34.8608V20H36.4418V14.0554H36.5142L40.6264 20H42.0327V11.2727ZM46.5849 20.1278C48.1104 20.1278 49.1587 19.3821 49.4315 18.2443L47.9911 18.0824C47.7823 18.6364 47.271 18.9261 46.6062 18.9261C45.609 18.9261 44.9485 18.2699 44.9357 17.1491H49.4954V16.6761C49.4954 14.3793 48.1147 13.3693 46.5039 13.3693C44.6289 13.3693 43.4059 14.7457 43.4059 16.7656C43.4059 18.8196 44.6119 20.1278 46.5849 20.1278ZM44.94 16.1094C44.9869 15.2741 45.6048 14.571 46.5252 14.571C47.4116 14.571 48.0082 15.2188 48.0167 16.1094H44.94ZM51.9329 13.4545H50.2965L52.2397 16.7273L50.2454 20H51.8817L53.2539 17.6435L54.6388 20H56.2624L54.2553 16.7273L56.2283 13.4545H54.5962L53.2539 15.8707L51.9329 13.4545ZM60.69 13.4545H59.3988V11.8864H57.8562V13.4545H56.9272V14.6477H57.8562V18.2869C57.8477 19.5185 58.7425 20.1236 59.9016 20.0895C60.3406 20.0767 60.6431 19.9915 60.8093 19.9361L60.5494 18.7301C60.4641 18.7514 60.2894 18.7898 60.0977 18.7898C59.7099 18.7898 59.3988 18.6534 59.3988 18.0312V14.6477H60.69V13.4545ZM62.9304 20.0938C63.4332 20.0938 63.8636 19.6761 63.8679 19.1562C63.8636 18.6449 63.4332 18.2273 62.9304 18.2273C62.4105 18.2273 61.9886 18.6449 61.9929 19.1562C61.9886 19.6761 62.4105 20.0938 62.9304 20.0938ZM65.4606 13.4545V20.3537C65.4606 20.9034 65.2262 21.1974 64.6339 21.1974C64.5572 21.1974 64.4975 21.1932 64.4123 21.1889V22.446C64.5231 22.4545 64.6168 22.4545 64.7276 22.4545C66.1722 22.4545 67.0032 21.7898 67.0032 20.375V13.4545H65.4606ZM66.2276 12.5256C66.7177 12.5256 67.1183 12.1506 67.1183 11.6903C67.1183 11.2259 66.7177 10.8509 66.2276 10.8509C65.7333 10.8509 65.3327 11.2259 65.3327 11.6903C65.3327 12.1506 65.7333 12.5256 66.2276 12.5256ZM73.7628 15.1847C73.5497 14.0767 72.6634 13.3693 71.1293 13.3693C69.5526 13.3693 68.4787 14.1449 68.483 15.3551C68.4787 16.3097 69.0668 16.9403 70.3239 17.2003L71.4403 17.4347C72.0412 17.5668 72.3224 17.8097 72.3224 18.1804C72.3224 18.6278 71.8366 18.9645 71.1037 18.9645C70.3963 18.9645 69.9361 18.6577 69.804 18.0696L68.2997 18.2145C68.4915 19.4162 69.5014 20.1278 71.108 20.1278C72.7443 20.1278 73.8991 19.2798 73.9034 18.0398C73.8991 17.1065 73.2983 16.5355 72.0625 16.267L70.946 16.0284C70.2812 15.8793 70.017 15.6491 70.0213 15.2699C70.017 14.8267 70.5071 14.5199 71.1506 14.5199C71.8622 14.5199 72.2372 14.9077 72.3565 15.3381L73.7628 15.1847Z" fill="#383B57"/>
<rect x="0.25" y="0.25" width="99.5" height="29.5" rx="4.75" stroke="#EBEBEB" stroke-width="0.5"/>
</svg>
