<svg width="73" height="30" viewBox="0 0 73 30" fill="none" xmlns="http://www.w3.org/2000/svg">
<rect x="0.25" y="0.25" width="72.5" height="29.5" rx="4.75" fill="white"/>
<g clip-path="url(#clip0)">
<path d="M6 5H25.4V24.33H6V5Z" fill="#CC0000"/>
<path d="M15.6345 7.07617H8.08398V22.2533H15.6337V10.9035H19.4749V22.2533H23.3161V7.07617H15.6345Z" fill="white"/>
</g>
<path d="M42.0327 10.2727H40.4602V16.2216H40.3835L36.2756 10.2727H34.8608V19H36.4418V13.0554H36.5142L40.6264 19H42.0327V10.2727ZM43.6871 21.4545H45.2298V17.9688H45.2937C45.5366 18.446 46.0437 19.1151 47.1687 19.1151C48.7113 19.1151 49.8661 17.892 49.8661 15.7358C49.8661 13.554 48.6772 12.3693 47.1644 12.3693C46.0096 12.3693 45.5281 13.0639 45.2937 13.5369H45.2042V12.4545H43.6871V21.4545ZM45.1999 15.7273C45.1999 14.4574 45.7454 13.6349 46.7383 13.6349C47.7653 13.6349 48.2937 14.5085 48.2937 15.7273C48.2937 16.9545 47.7567 17.8494 46.7383 17.8494C45.7539 17.8494 45.1999 16.9972 45.1999 15.7273ZM51.1871 19H52.7298V15.0199C52.7298 14.2145 53.2667 13.669 53.9315 13.669C54.5835 13.669 55.0309 14.108 55.0309 14.7812V19H56.5437V14.9176C56.5437 14.1804 56.9826 13.669 57.7283 13.669C58.3505 13.669 58.8448 14.0355 58.8448 14.8452V19H60.3917V14.6065C60.3917 13.1449 59.5479 12.3693 58.3462 12.3693C57.396 12.3693 56.6715 12.8381 56.3817 13.5668H56.3136C56.0621 12.8253 55.4272 12.3693 54.5451 12.3693C53.6673 12.3693 53.011 12.821 52.7383 13.5668H52.6616V12.4545H51.1871V19Z" fill="#383B57"/>
<rect x="0.25" y="0.25" width="72.5" height="29.5" rx="4.75" stroke="#EBEBEB" stroke-width="0.5"/>
<defs>
<clipPath id="clip0">
<rect width="19.4" height="19.33" fill="white" transform="translate(6 5)"/>
</clipPath>
</defs>
</svg>
