<svg width="100" height="30" viewBox="0 0 100 30" fill="none" xmlns="http://www.w3.org/2000/svg">
<rect x="0.25" y="0.25" width="99.5" height="29.5" rx="4.75" fill="white"/>
<path d="M40.8608 19H42.4418V15.804H44.0526L45.7656 19H47.5298L45.642 15.5398C46.669 15.1264 47.2102 14.2486 47.2102 13.0639C47.2102 11.3977 46.1364 10.2727 44.1335 10.2727H40.8608V19ZM42.4418 14.4915V11.5938H43.8906C45.071 11.5938 45.5994 12.1349 45.5994 13.0639C45.5994 13.9929 45.071 14.4915 43.8991 14.4915H42.4418ZM51.4013 19.1278C52.9268 19.1278 53.9751 18.3821 54.2479 17.2443L52.8075 17.0824C52.5987 17.6364 52.0874 17.9261 51.4226 17.9261C50.4254 17.9261 49.7649 17.2699 49.7521 16.1491H54.3118V15.6761C54.3118 13.3793 52.9311 12.3693 51.3203 12.3693C49.4453 12.3693 48.2223 13.7457 48.2223 15.7656C48.2223 17.8196 49.4283 19.1278 51.4013 19.1278ZM49.7564 15.1094C49.8033 14.2741 50.4212 13.571 51.3416 13.571C52.228 13.571 52.8246 14.2188 52.8331 15.1094H49.7564ZM58.0458 19.1151C59.1708 19.1151 59.6779 18.446 59.9208 17.9688H60.0146V19H61.5316V10.2727H59.9847V13.5369H59.9208C59.6864 13.0639 59.2049 12.3693 58.0501 12.3693C56.5373 12.3693 55.3484 13.554 55.3484 15.7358C55.3484 17.892 56.5032 19.1151 58.0458 19.1151ZM58.4762 17.8494C57.4577 17.8494 56.9208 16.9545 56.9208 15.7273C56.9208 14.5085 57.4492 13.6349 58.4762 13.6349C59.4691 13.6349 60.0146 14.4574 60.0146 15.7273C60.0146 16.9972 59.4606 17.8494 58.4762 17.8494ZM67.3473 16.2472C67.3473 17.2443 66.6357 17.7386 65.9538 17.7386C65.2124 17.7386 64.718 17.2145 64.718 16.3835V12.4545H63.1754V16.6222C63.1754 18.1946 64.0703 19.0852 65.3572 19.0852C66.3374 19.0852 67.0277 18.5696 67.326 17.8366H67.3942V19H68.8899V12.4545H67.3473V16.2472ZM71.7376 12.4545H70.1012L72.0444 15.7273L70.0501 19H71.6864L73.0586 16.6435L74.4435 19H76.0671L74.06 15.7273L76.033 12.4545H74.4009L73.0586 14.8707L71.7376 12.4545Z" fill="#383B57"/>
<g clip-path="url(#clip0)">
<path d="M25.2437 19.3036C26.0555 19.2154 26.6714 18.4812 26.6434 17.6C26.6155 16.7189 25.9155 16.0139 25.0757 16.0139H25.0197C24.1518 16.0433 23.4799 16.8069 23.5079 17.7174C23.5359 18.158 23.7039 18.5399 23.9558 18.8042C23.004 20.7721 21.5482 22.2113 19.3645 23.4155C17.8807 24.2379 16.341 24.5317 14.8012 24.3261C13.5414 24.1499 12.5615 23.5625 11.9455 22.5931C11.0497 21.1539 10.9658 19.5972 11.7217 18.0406C12.2536 16.9244 13.0934 16.102 13.6254 15.6908C13.5134 15.309 13.3454 14.6628 13.2614 14.1929C9.20198 17.2769 9.62196 21.4477 10.8538 23.4155C11.7776 24.8842 13.6534 25.7947 15.7251 25.7947C16.285 25.7947 16.8448 25.7359 17.4048 25.5891C20.9883 24.8548 23.7039 22.6225 25.2437 19.3036ZM30.171 15.6615C28.0433 13.0474 24.9077 11.6082 21.3242 11.6082H20.8763C20.6244 11.0796 20.0924 10.727 19.5045 10.727H19.4485C18.5807 10.7564 17.9088 11.5201 17.9368 12.4306C17.9648 13.3117 18.6646 14.0167 19.5045 14.0167H19.5605C20.1764 13.9873 20.7083 13.5761 20.9323 13.018H21.4362C23.5639 13.018 25.5796 13.6642 27.3994 14.9272C28.7992 15.8965 29.807 17.1595 30.3669 18.6867C30.8428 19.9203 30.8148 21.1246 30.3109 22.1526C29.5271 23.7093 28.2113 24.5611 26.4755 24.5611C25.3557 24.5611 24.2918 24.2086 23.7319 23.9442C23.424 24.2379 22.864 24.7078 22.472 25.0017C23.6759 25.589 24.9077 25.9122 26.0835 25.9122C28.7712 25.9122 30.7589 24.3554 31.5148 22.7988C32.3266 21.0952 32.2706 18.158 30.171 15.6615ZM15.949 19.8028C15.977 20.684 16.6769 21.3888 17.5168 21.3888H17.5728C18.4407 21.3595 19.1126 20.5958 19.0845 19.6853C19.0566 18.8041 18.3566 18.0993 17.5168 18.0993H17.4608C17.4048 18.0993 17.3208 18.0993 17.2649 18.1286C16.117 16.1313 15.6411 13.9579 15.8091 11.6081C15.921 9.84584 16.481 8.3185 17.4608 7.05549C18.2727 5.96874 19.8404 5.44006 20.9044 5.41076C23.8719 5.35198 25.1316 9.22899 25.2157 10.7857C25.5796 10.8738 26.1955 11.0795 26.6155 11.2263C26.2795 6.46821 23.4799 4.00098 20.7924 4.00098C18.2727 4.00098 15.949 5.91014 15.0251 8.72979C13.7373 12.4893 14.5772 16.102 16.145 18.9511C16.0051 19.1566 15.921 19.4797 15.949 19.8029V19.8028Z" fill="#764ABC"/>
</g>
<rect x="0.25" y="0.25" width="99.5" height="29.5" rx="4.75" stroke="#EBEBEB" stroke-width="0.5"/>
<defs>
<clipPath id="clip0">
<rect width="22" height="22" fill="white" transform="translate(10 4)"/>
</clipPath>
</defs>
</svg>
