<svg width="115" height="30" viewBox="0 0 115 30" fill="none" xmlns="http://www.w3.org/2000/svg">
<rect x="0.25" y="0.25" width="114.5" height="29.5" rx="4.75" fill="white"/>
<path d="M24.2755 11.9283C24.0688 11.8565 23.8604 11.7901 23.6504 11.7289C23.6853 11.5858 23.7175 11.4419 23.747 11.2976C24.2202 8.97338 23.9108 7.10104 22.8543 6.48469C21.8414 5.89356 20.1848 6.5099 18.5117 7.98321C18.3468 8.12872 18.1856 8.27842 18.0282 8.43217C17.9228 8.32993 17.8155 8.22968 17.7065 8.13147C15.953 6.55599 14.1954 5.89217 13.14 6.51034C12.1281 7.10312 11.8283 8.86338 12.2543 11.066C12.2967 11.2841 12.3445 11.5011 12.3978 11.7168C12.1491 11.7883 11.9089 11.8644 11.6792 11.9455C9.62345 12.6707 8.31055 13.8074 8.31055 14.9863C8.31055 16.2041 9.71986 17.4255 11.8612 18.166C12.0348 18.2258 12.2099 18.2811 12.3862 18.3321C12.3289 18.5644 12.2781 18.7983 12.2337 19.0336C11.8276 21.1979 12.1447 22.9164 13.154 23.5056C14.1965 24.1138 15.9461 23.4886 17.6498 21.9816C17.7845 21.8625 17.9197 21.7362 18.055 21.6037C18.2255 21.7702 18.4005 21.9318 18.5799 22.0883C20.2302 23.5253 21.86 24.1056 22.8684 23.5149C23.91 22.9048 24.2484 21.0586 23.8089 18.8124C23.7754 18.6409 23.7363 18.4656 23.6925 18.2872C23.8153 18.2505 23.9359 18.2126 24.0536 18.1731C26.2796 17.4269 27.7278 16.2203 27.7278 14.9863C27.7278 13.8031 26.3727 12.6588 24.2755 11.9283Z" fill="#53C1DE"/>
<path d="M23.7914 17.3759C23.6852 17.4115 23.5763 17.4459 23.4652 17.4792C23.2195 16.6919 22.8878 15.8548 22.482 14.99C22.8693 14.1457 23.1881 13.3193 23.427 12.5372C23.6256 12.5954 23.8184 12.6567 24.0042 12.7215C25.8011 13.3473 26.8971 14.2728 26.8971 14.9859C26.8971 15.7454 25.7134 16.7315 23.7914 17.3759H23.7914ZM22.9939 18.975C23.1882 19.9682 23.2159 20.8662 23.0872 21.5682C22.9716 22.199 22.739 22.6195 22.4515 22.7879C21.8395 23.1464 20.5309 22.6805 19.1196 21.4516C18.9578 21.3107 18.7948 21.1603 18.6314 21.0012C19.1785 20.3956 19.7253 19.6916 20.259 18.9099C21.1977 18.8256 22.0845 18.6878 22.8888 18.4997C22.9283 18.6614 22.9636 18.8199 22.9939 18.975ZM14.929 22.726C14.3311 22.9397 13.855 22.9458 13.5672 22.7779C12.9547 22.4205 12.7001 21.0405 13.0474 19.1896C13.0887 18.9709 13.136 18.7533 13.1892 18.5372C13.9845 18.7152 14.8649 18.8433 15.8059 18.9206C16.343 19.6855 16.9056 20.3886 17.4726 21.0044C17.3521 21.1223 17.2288 21.2373 17.1027 21.3491C16.3493 22.0155 15.5944 22.4882 14.9291 22.726H14.929ZM12.1281 17.3712C11.1813 17.0438 10.3994 16.6182 9.86344 16.1539C9.38186 15.7365 9.13867 15.3221 9.13867 14.9859C9.13867 14.2705 10.1928 13.3579 11.9509 12.7376C12.1716 12.6601 12.3945 12.5891 12.6193 12.5248C12.8623 13.3246 13.181 14.1607 13.5656 15.0063C13.176 15.8645 12.8527 16.7139 12.6075 17.5231C12.4465 17.4764 12.2867 17.4258 12.1281 17.3712ZM13.0671 10.9043C12.7021 9.01707 12.9444 7.5935 13.5543 7.23629C14.204 6.85577 15.6404 7.39837 17.1543 8.75864C17.2511 8.84559 17.3483 8.93664 17.4457 9.03081C16.8816 9.64377 16.3241 10.3416 15.7916 11.1021C14.8784 11.1878 14.0042 11.3253 13.2005 11.5096C13.151 11.309 13.1065 11.1071 13.0671 10.9042V10.9043ZM21.4428 12.9971C21.253 12.6653 21.0561 12.3377 20.8523 12.0145C21.4719 12.0936 22.0655 12.1988 22.6228 12.3276C22.4555 12.8703 22.247 13.4378 22.0014 14.0195C21.8219 13.675 21.6357 13.3341 21.4428 12.9971ZM18.0272 9.63064C18.4097 10.05 18.7929 10.5184 19.1698 11.0265C18.4053 10.9899 17.6394 10.9897 16.8749 11.0259C17.2521 10.5225 17.6386 10.0549 18.0272 9.63064ZM14.5896 13.0028C14.3992 13.3371 14.2164 13.6759 14.0415 14.0189C13.8 13.4392 13.5933 12.8692 13.4245 12.3187C13.9786 12.1932 14.5694 12.0907 15.1849 12.0129C14.9788 12.3381 14.7804 12.6682 14.5896 13.0028ZM15.2026 18.0187C14.5667 17.9469 13.967 17.8496 13.4131 17.7276C13.5846 17.1674 13.7958 16.5852 14.0425 15.993C14.2181 16.3362 14.4016 16.6752 14.593 17.0097C14.7882 17.3509 14.9915 17.6873 15.2026 18.0187ZM18.0501 20.4004C17.657 19.9711 17.2648 19.4963 16.8818 18.9856C17.2536 19.0004 17.6326 19.0079 18.0179 19.0079C18.4137 19.0079 18.805 18.9989 19.19 18.9815C18.8119 19.5015 18.4301 19.977 18.0501 20.4004ZM22.0093 15.9628C22.2688 16.5614 22.4876 17.1406 22.6613 17.6912C22.0983 17.8212 21.4905 17.9259 20.85 18.0037C21.0553 17.6744 21.254 17.3411 21.4461 17.0039C21.6415 16.6611 21.8292 16.314 22.0093 15.9628ZM20.7276 16.5846C20.4334 17.1016 20.1228 17.6088 19.796 18.1054C19.2199 18.1471 18.6246 18.1686 18.0179 18.1686C17.4137 18.1686 16.8259 18.1495 16.2598 18.1124C15.9247 17.6169 15.6081 17.1088 15.3109 16.5892C15.015 16.0723 14.7387 15.5442 14.4825 15.006C14.7381 14.4677 15.0136 13.9394 15.3084 13.422V13.4222C15.6031 12.9048 15.9172 12.3988 16.2499 11.9055C16.8274 11.8613 17.4194 11.8382 18.018 11.8382C18.6192 11.8382 19.212 11.8615 19.7893 11.906C20.1187 12.3986 20.4307 12.9028 20.7249 13.4176C21.0207 13.9338 21.2999 14.4596 21.562 14.9941C21.3026 15.5341 21.0243 16.0646 20.7276 16.5846H20.7276ZM22.4388 7.21133C23.0889 7.59081 23.3418 9.12098 22.9333 11.1277C22.9065 11.2584 22.8774 11.3886 22.846 11.5183C22.0405 11.3302 21.1656 11.1902 20.2498 11.1032C19.7162 10.3345 19.1634 9.63542 18.6084 9.03037C18.7538 8.88851 18.9027 8.75032 19.0549 8.61594C20.4885 7.3535 21.8283 6.85507 22.4388 7.21133Z" fill="white"/>
<path d="M18.019 13.2319C18.9767 13.2319 19.7529 14.0175 19.7529 14.9865C19.7529 15.9555 18.9767 16.7411 18.019 16.7411C17.0615 16.7411 16.2852 15.9555 16.2852 14.9865C16.2852 14.0175 17.0615 13.2319 18.019 13.2319Z" fill="#53C1DE"/>
<path d="M32.8608 19H34.4418V15.804H36.0526L37.7656 19H39.5298L37.642 15.5398C38.669 15.1264 39.2102 14.2486 39.2102 13.0639C39.2102 11.3977 38.1364 10.2727 36.1335 10.2727H32.8608V19ZM34.4418 14.4915V11.5938H35.8906C37.071 11.5938 37.5994 12.1349 37.5994 13.0639C37.5994 13.9929 37.071 14.4915 35.8991 14.4915H34.4418ZM43.4013 19.1278C44.9268 19.1278 45.9751 18.3821 46.2479 17.2443L44.8075 17.0824C44.5987 17.6364 44.0874 17.9261 43.4226 17.9261C42.4254 17.9261 41.7649 17.2699 41.7521 16.1491H46.3118V15.6761C46.3118 13.3793 44.9311 12.3693 43.3203 12.3693C41.4453 12.3693 40.2223 13.7457 40.2223 15.7656C40.2223 17.8196 41.4283 19.1278 43.4013 19.1278ZM41.7564 15.1094C41.8033 14.2741 42.4212 13.571 43.3416 13.571C44.228 13.571 44.8246 14.2188 44.8331 15.1094H41.7564ZM49.5004 19.1321C50.5273 19.1321 51.141 18.6506 51.4222 18.1009H51.4734V19H52.9563V14.6193C52.9563 12.8892 51.5458 12.3693 50.2972 12.3693C48.9208 12.3693 47.864 12.983 47.5231 14.1761L48.9634 14.3807C49.1168 13.9332 49.5515 13.5497 50.3058 13.5497C51.0217 13.5497 51.4137 13.9162 51.4137 14.5597V14.5852C51.4137 15.0284 50.9492 15.0497 49.7944 15.1733C48.5245 15.3097 47.31 15.6889 47.31 17.1634C47.31 18.4503 48.2518 19.1321 49.5004 19.1321ZM49.9009 17.9986C49.2575 17.9986 48.7972 17.7045 48.7972 17.1378C48.7972 16.5455 49.3129 16.2983 50.0032 16.2003C50.408 16.1449 51.2177 16.0426 51.418 15.8807V16.652C51.418 17.3807 50.8299 17.9986 49.9009 17.9986ZM57.3626 19.1278C59.0075 19.1278 60.0558 18.152 60.1665 16.7628H58.6921C58.56 17.4659 58.0529 17.8707 57.3754 17.8707C56.4123 17.8707 55.7901 17.0653 55.7901 15.7273C55.7901 14.4062 56.4251 13.6136 57.3754 13.6136C58.1168 13.6136 58.5728 14.0909 58.6921 14.7216H60.1665C60.06 13.3026 58.9521 12.3693 57.354 12.3693C55.4364 12.3693 54.2262 13.7543 54.2262 15.7528C54.2262 17.7344 55.4066 19.1278 57.3626 19.1278ZM64.7017 12.4545H63.4105V10.8864H61.8679V12.4545H60.9389V13.6477H61.8679V17.2869C61.8594 18.5185 62.7543 19.1236 63.9134 19.0895C64.3523 19.0767 64.6548 18.9915 64.821 18.9361L64.5611 17.7301C64.4759 17.7514 64.3011 17.7898 64.1094 17.7898C63.7216 17.7898 63.4105 17.6534 63.4105 17.0312V13.6477H64.7017V12.4545ZM69.7482 14.7301H65.8192V16H69.7482V14.7301ZM78.6108 10.2727H77.0384V16.2216H76.9616L72.8537 10.2727H71.4389V19H73.0199V13.0554H73.0923L77.2045 19H78.6108V10.2727ZM82.1488 19.1321C83.1758 19.1321 83.7894 18.6506 84.0707 18.1009H84.1218V19H85.6048V14.6193C85.6048 12.8892 84.1942 12.3693 82.9457 12.3693C81.5692 12.3693 80.5124 12.983 80.1715 14.1761L81.6119 14.3807C81.7653 13.9332 82.1999 13.5497 82.9542 13.5497C83.6701 13.5497 84.0621 13.9162 84.0621 14.5597V14.5852C84.0621 15.0284 83.5977 15.0497 82.4428 15.1733C81.1729 15.3097 79.9585 15.6889 79.9585 17.1634C79.9585 18.4503 80.9002 19.1321 82.1488 19.1321ZM82.5494 17.9986C81.9059 17.9986 81.4457 17.7045 81.4457 17.1378C81.4457 16.5455 81.9613 16.2983 82.6516 16.2003C83.0565 16.1449 83.8661 16.0426 84.0664 15.8807V16.652C84.0664 17.3807 83.4783 17.9986 82.5494 17.9986ZM90.4244 12.4545H89.1332V10.8864H87.5906V12.4545H86.6616V13.6477H87.5906V17.2869C87.582 18.5185 88.4769 19.1236 89.636 19.0895C90.0749 19.0767 90.3775 18.9915 90.5437 18.9361L90.2837 17.7301C90.1985 17.7514 90.0238 17.7898 89.832 17.7898C89.4442 17.7898 89.1332 17.6534 89.1332 17.0312V13.6477H90.4244V12.4545ZM91.7145 19H93.2571V12.4545H91.7145V19ZM92.4901 11.5256C92.9801 11.5256 93.3807 11.1506 93.3807 10.6903C93.3807 10.2259 92.9801 9.85085 92.4901 9.85085C91.9957 9.85085 91.5952 10.2259 91.5952 10.6903C91.5952 11.1506 91.9957 11.5256 92.4901 11.5256ZM100.69 12.4545H99.0494L97.5408 17.3168H97.4727L95.9684 12.4545H94.3235L96.6545 19H98.359L100.69 12.4545ZM104.433 19.1278C105.958 19.1278 107.006 18.3821 107.279 17.2443L105.839 17.0824C105.63 17.6364 105.119 17.9261 104.454 17.9261C103.457 17.9261 102.796 17.2699 102.783 16.1491H107.343V15.6761C107.343 13.3793 105.962 12.3693 104.352 12.3693C102.477 12.3693 101.254 13.7457 101.254 15.7656C101.254 17.8196 102.46 19.1278 104.433 19.1278ZM102.788 15.1094C102.835 14.2741 103.452 13.571 104.373 13.571C105.259 13.571 105.856 14.2188 105.864 15.1094H102.788Z" fill="#383B57"/>
<rect x="0.25" y="0.25" width="114.5" height="29.5" rx="4.75" stroke="#EBEBEB" stroke-width="0.5"/>
</svg>
