<svg width="76" height="30" viewBox="0 0 76 30" fill="none" xmlns="http://www.w3.org/2000/svg">
<rect x="0.25" y="0.25" width="75.5" height="29.5" rx="4.75" fill="white"/>
<path d="M24.6766 16.4846C23.9522 16.4898 23.3248 16.7139 22.7987 17.0475C22.6044 16.5524 22.4102 16.1197 22.3778 15.7967C22.3414 15.4214 22.2969 15.1921 22.3414 14.7439C22.3859 14.2956 22.5882 13.6598 22.5882 13.6077C22.5842 13.5608 22.5437 13.3315 22.1269 13.3262C21.71 13.321 21.3498 13.4305 21.3093 13.5712C21.2688 13.7119 21.1879 14.035 21.1353 14.3686C21.0624 14.8585 20.3016 16.594 19.8685 17.5061C19.7269 17.1517 19.6054 16.839 19.5811 16.5887C19.5447 16.2136 19.5002 15.9842 19.5447 15.536C19.5892 15.0878 19.7916 14.452 19.7916 14.3999C19.7876 14.353 19.7471 14.1236 19.3303 14.1184C18.9134 14.1132 18.5532 14.2227 18.5127 14.3634C18.4723 14.5041 18.4277 14.8377 18.3387 15.1608C18.2537 15.4839 17.2419 18.3816 16.9788 19.1373C16.8452 19.523 16.7279 19.8305 16.6429 20.039C16.5579 20.2474 16.6388 20.0546 16.6307 20.0755C16.5579 20.2527 16.5174 20.3517 16.5174 20.3517V20.3569C16.4607 20.4872 16.4 20.6123 16.3717 20.6123C16.3514 20.6123 16.311 20.2631 16.3798 19.7836C16.5295 18.7777 16.8938 17.209 16.8897 17.1517C16.8897 17.1257 16.9585 16.8494 16.655 16.7087C16.3595 16.568 16.2543 16.8025 16.23 16.8025C16.2057 16.8025 16.1855 16.8859 16.1855 16.8859C16.1855 16.8859 16.5133 15.1192 15.5582 15.1192C14.9592 15.1192 14.1335 15.9583 13.7248 16.7244C13.4657 16.9068 12.9153 17.2924 12.3325 17.7042C12.1099 17.8606 11.8792 18.0273 11.6607 18.1785L11.6162 18.1158C10.4587 16.5263 8.31772 15.4005 8.40676 13.2637C8.43913 12.4872 8.64959 10.4389 12.5188 7.95815C15.6878 5.92557 18.2254 6.48323 18.6665 7.72362C19.2938 9.49562 17.3107 12.7894 14.0163 13.2637C12.7616 13.4461 12.1019 12.8207 11.936 12.5862C11.7619 12.3412 11.7377 12.3308 11.6729 12.3777C11.5677 12.4507 11.6324 12.6696 11.6729 12.7999C11.77 13.1282 12.1748 13.7119 12.8628 14.0038C13.4658 14.2591 14.939 14.3999 16.7198 13.5139C18.7151 12.5184 20.2733 9.7562 19.8159 7.4474C19.3505 5.09691 16.3232 4.32557 13.4618 5.63372C11.7579 6.41548 9.91232 7.63502 8.58483 9.23503C7.00641 11.1321 6.75549 12.7894 6.86071 13.4774C7.22905 15.9321 9.85566 17.5321 10.9079 18.7152C10.8553 18.7516 10.8068 18.7881 10.7622 18.8194C10.2361 19.1529 8.23272 20.5028 7.73087 21.9308C7.16426 23.5464 7.81991 24.7087 8.25701 24.865C9.60878 25.3497 10.9929 24.4794 11.7417 23.0461C12.4863 21.6129 12.3973 19.7523 12.0533 18.9028L12.0411 18.8715L12.4539 18.5588C12.7211 18.3556 12.9842 18.168 13.2148 18.0063C13.0854 18.4598 12.9922 18.9966 12.9437 19.7783C12.887 20.6957 13.1784 21.8839 13.5629 22.3529C13.7329 22.5561 13.9353 22.5614 14.0607 22.5614C14.5059 22.5614 14.7083 22.0871 14.9309 21.5191C15.2061 20.8259 15.4489 20.0233 15.4489 20.0233C15.4489 20.0233 15.1454 22.1966 15.9751 22.1966C16.2786 22.1966 16.5822 21.691 16.7198 21.4305V21.4357C16.7198 21.4357 16.7279 21.42 16.744 21.3835C16.761 21.3512 16.7772 21.3182 16.7926 21.2846V21.2742C16.914 21.0031 17.1852 20.3829 17.5899 19.3562C18.112 18.0325 18.6139 16.3751 18.6139 16.3751C18.6139 16.3751 18.6624 16.7816 18.8122 17.4487C18.9012 17.8449 19.0954 18.2774 19.2452 18.6996C19.1238 18.9184 19.0509 19.0436 19.0509 19.0436L19.055 19.0488C18.9579 19.2156 18.8486 19.3928 18.7353 19.57C18.3225 20.2058 17.8287 20.9303 17.7639 21.1388C17.687 21.3837 17.7032 21.5661 17.853 21.712C17.9623 21.8163 18.1565 21.8371 18.3629 21.8163C18.7353 21.785 18.9943 21.6651 19.1238 21.5921C19.3262 21.4983 19.5569 21.3576 19.7795 21.1491C20.1842 20.7635 20.4311 20.2163 20.4068 19.4866C20.3946 19.0853 20.2935 18.6892 20.168 18.314C20.2044 18.2462 20.2409 18.1784 20.2773 18.1055C20.9167 16.9016 21.4105 15.5778 21.4105 15.5778C21.4105 15.5778 21.4591 15.9843 21.6088 16.6514C21.6857 16.9902 21.8395 17.3603 21.9771 17.7251C21.3781 18.3557 21.0017 19.0854 20.8722 19.5649C20.6334 20.4509 20.8196 20.8522 21.1717 20.946C21.3295 20.9877 21.5562 20.8939 21.7261 20.8C21.9366 20.7114 22.1916 20.5602 22.4264 20.3362C22.8311 19.9505 23.2196 19.4137 23.1994 18.6893C23.1872 18.3557 23.1184 18.0274 23.0253 17.7147C23.5353 17.4437 24.195 17.2873 25.0328 17.4176C26.8338 17.6886 27.1899 19.1375 27.1212 19.7421C27.0524 20.3467 26.676 20.6802 26.5505 20.7844C26.425 20.8834 26.3845 20.92 26.3967 20.9929C26.4129 21.1024 26.4695 21.0971 26.5788 21.0763C26.7286 21.045 27.5259 20.5812 27.5582 19.4659C27.6068 18.0325 26.5505 16.469 24.6766 16.4846V16.4846ZM10.7865 22.5145C10.1916 23.3536 9.35381 23.6716 8.99765 23.4005C8.61316 23.1139 8.76287 21.8787 9.49546 20.9875C9.94065 20.4455 10.5194 19.9452 10.8998 19.6377C10.9848 19.5699 11.1144 19.4709 11.2681 19.351C11.2924 19.3302 11.3086 19.3198 11.3086 19.3198C11.3369 19.2989 11.3693 19.2728 11.4017 19.2468C11.6729 20.5185 11.4138 21.6338 10.7865 22.5145V22.5145ZM15.1373 18.7048C14.9309 19.3562 14.4938 21.0292 14.2307 20.9354C14.004 20.8572 13.8665 19.5908 14.1862 18.3399C14.348 17.7093 14.6921 16.9588 14.8944 16.6669C15.2223 16.1979 15.5784 16.0415 15.6675 16.2343C15.7727 16.4846 15.2668 18.2982 15.1373 18.7048ZM18.7272 20.9145C18.6381 20.9719 18.5572 21.0136 18.5208 20.9823C18.4924 20.9615 18.5572 20.8833 18.5572 20.8833C18.5572 20.8833 19.0064 20.2631 19.1845 19.9765C19.2857 19.8098 19.4071 19.6169 19.5366 19.398V19.4605C19.5366 20.211 18.9781 20.7113 18.7272 20.9145ZM21.4955 20.1015C21.4307 20.039 21.4388 19.8461 21.6573 19.2416C21.7424 19.0018 21.9366 18.6005 22.2725 18.2201C22.313 18.3764 22.3373 18.5275 22.3332 18.6683C22.3292 19.6064 21.8112 19.9556 21.4955 20.1015Z" fill="#CF649A"/>
<path d="M38.6037 12.6719H40.125C40.0952 11.1974 38.8381 10.1534 36.9801 10.1534C35.1477 10.1534 33.7713 11.1847 33.7756 12.7273C33.7756 13.9801 34.6662 14.7003 36.1023 15.071L37.0952 15.3267C38.0369 15.5653 38.6591 15.8594 38.6634 16.5369C38.6591 17.2827 37.9517 17.7812 36.9205 17.7812C35.9318 17.7812 35.1648 17.3381 35.1009 16.4219H33.5455C33.6094 18.1562 34.9006 19.1321 36.9332 19.1321C39.0256 19.1321 40.2401 18.0881 40.2443 16.5497C40.2401 15.0369 38.9915 14.3466 37.679 14.0355L36.8608 13.831C36.1449 13.6605 35.3693 13.358 35.3778 12.6293C35.3821 11.973 35.9702 11.4915 36.9588 11.4915C37.9006 11.4915 38.5227 11.9304 38.6037 12.6719ZM43.4691 19.1321C44.4961 19.1321 45.1097 18.6506 45.391 18.1009H45.4421V19H46.9251V14.6193C46.9251 12.8892 45.5146 12.3693 44.266 12.3693C42.8896 12.3693 41.8327 12.983 41.4918 14.1761L42.9322 14.3807C43.0856 13.9332 43.5202 13.5497 44.2745 13.5497C44.9904 13.5497 45.3825 13.9162 45.3825 14.5597V14.5852C45.3825 15.0284 44.918 15.0497 43.7631 15.1733C42.4933 15.3097 41.2788 15.6889 41.2788 17.1634C41.2788 18.4503 42.2205 19.1321 43.4691 19.1321ZM43.8697 17.9986C43.2262 17.9986 42.766 17.7045 42.766 17.1378C42.766 16.5455 43.2816 16.2983 43.9719 16.2003C44.3768 16.1449 45.1864 16.0426 45.3867 15.8807V16.652C45.3867 17.3807 44.7987 17.9986 43.8697 17.9986ZM53.6495 14.1847C53.4364 13.0767 52.5501 12.3693 51.016 12.3693C49.4393 12.3693 48.3654 13.1449 48.3697 14.3551C48.3654 15.3097 48.9535 15.9403 50.2106 16.2003L51.3271 16.4347C51.9279 16.5668 52.2092 16.8097 52.2092 17.1804C52.2092 17.6278 51.7234 17.9645 50.9904 17.9645C50.283 17.9645 49.8228 17.6577 49.6907 17.0696L48.1864 17.2145C48.3782 18.4162 49.3881 19.1278 50.9947 19.1278C52.631 19.1278 53.7859 18.2798 53.7901 17.0398C53.7859 16.1065 53.185 15.5355 51.9492 15.267L50.8327 15.0284C50.168 14.8793 49.9038 14.6491 49.908 14.2699C49.9038 13.8267 50.3938 13.5199 51.0373 13.5199C51.7489 13.5199 52.1239 13.9077 52.2433 14.3381L53.6495 14.1847ZM60.2354 14.1847C60.0224 13.0767 59.136 12.3693 57.6019 12.3693C56.0252 12.3693 54.9513 13.1449 54.9556 14.3551C54.9513 15.3097 55.5394 15.9403 56.7965 16.2003L57.913 16.4347C58.5138 16.5668 58.7951 16.8097 58.7951 17.1804C58.7951 17.6278 58.3093 17.9645 57.5763 17.9645C56.869 17.9645 56.4087 17.6577 56.2766 17.0696L54.7724 17.2145C54.9641 18.4162 55.9741 19.1278 57.5806 19.1278C59.217 19.1278 60.3718 18.2798 60.3761 17.0398C60.3718 16.1065 59.771 15.5355 58.5352 15.267L57.4187 15.0284C56.7539 14.8793 56.4897 14.6491 56.494 14.2699C56.4897 13.8267 56.9798 13.5199 57.6232 13.5199C58.3349 13.5199 58.7099 13.9077 58.8292 14.3381L60.2354 14.1847Z" fill="#383B57"/>
<rect x="0.25" y="0.25" width="75.5" height="29.5" rx="4.75" stroke="#EBEBEB" stroke-width="0.5"/>
</svg>
