<svg width="102" height="29" viewBox="0 0 102 29" fill="none" xmlns="http://www.w3.org/2000/svg">
<rect x="0.25" y="0.25" width="101.5" height="28.5" rx="4.75" fill="white"/>
<path d="M7.17969 14.5002V4.8335H26.5797V24.1668H7.17969" fill="#0076C6"/>
<path d="M11.0605 13.5597V14.4263H13.8347V22.295H15.8034V14.4263H18.5776V13.5757C18.5776 13.0972 18.5776 12.709 18.5562 12.6984C18.5562 12.6825 16.865 12.6771 14.8111 12.6771L11.0766 12.6931V13.565L11.0605 13.5597ZM23.5284 12.6718C24.0726 12.7994 24.4887 13.044 24.8622 13.4321C25.0596 13.6448 25.353 14.0169 25.3744 14.1126C25.3744 14.1445 24.4514 14.7666 23.8912 15.1122C23.8699 15.1281 23.7845 15.0377 23.6992 14.8995C23.4217 14.5061 23.139 14.3359 22.6962 14.304C22.056 14.2615 21.6292 14.5965 21.6292 15.1547C21.6292 15.3248 21.6612 15.4205 21.7252 15.5588C21.8693 15.8512 22.136 16.0266 22.9629 16.3882C24.4887 17.0421 25.1503 17.4728 25.5504 18.0895C26.0039 18.7807 26.1052 19.8653 25.8012 20.6787C25.4597 21.5666 24.6275 22.1674 23.4377 22.3641C23.0643 22.4279 22.2107 22.4173 21.8106 22.3482C20.957 22.1887 20.1407 21.7633 19.6392 21.2157C19.4418 21.003 19.063 20.4342 19.0844 20.3969L19.2871 20.2693L20.0874 19.8068L20.6902 19.4559L20.8289 19.642C21.005 19.9184 21.3998 20.2906 21.6292 20.4182C22.3227 20.7744 23.251 20.7266 23.7098 20.3119C23.9072 20.1311 23.9926 19.9397 23.9926 19.6739C23.9926 19.4293 23.9552 19.3177 23.8325 19.1316C23.6618 18.8976 23.3204 18.7062 22.3601 18.2809C21.2557 17.813 20.7863 17.5153 20.3488 17.0581C20.098 16.7816 19.8686 16.351 19.7619 15.9947C19.6819 15.6864 19.6552 14.9314 19.7299 14.6284C19.9593 13.565 20.7649 12.8207 21.9173 12.608C22.2907 12.5336 23.171 12.5655 23.5391 12.6612L23.5284 12.6718Z" fill="white"/>
<path d="M33.4773 11.598H36.1747V19H37.7429V11.598H40.4403V10.2727H33.4773V11.598ZM41.9233 21.4545C43.125 21.4545 43.8196 20.8366 44.1903 19.7926L46.8196 12.4631L45.1705 12.4545L43.6577 17.3977H43.5895L42.081 12.4545H40.4446L42.8182 19.1364L42.6861 19.4901C42.4006 20.2358 41.9489 20.2869 41.2756 20.0909L40.9176 21.2926C41.1264 21.3778 41.5014 21.4545 41.9233 21.4545ZM47.8903 21.4545H49.4329V17.9688H49.4968C49.7397 18.446 50.2468 19.1151 51.3718 19.1151C52.9144 19.1151 54.0692 17.892 54.0692 15.7358C54.0692 13.554 52.8803 12.3693 51.3675 12.3693C50.2127 12.3693 49.7312 13.0639 49.4968 13.5369H49.4073V12.4545H47.8903V21.4545ZM49.4031 15.7273C49.4031 14.4574 49.9485 13.6349 50.9414 13.6349C51.9684 13.6349 52.4968 14.5085 52.4968 15.7273C52.4968 16.9545 51.9599 17.8494 50.9414 17.8494C49.957 17.8494 49.4031 16.9972 49.4031 15.7273ZM58.288 19.1278C59.8136 19.1278 60.8619 18.3821 61.1346 17.2443L59.6942 17.0824C59.4854 17.6364 58.9741 17.9261 58.3093 17.9261C57.3121 17.9261 56.6516 17.2699 56.6388 16.1491H61.1985V15.6761C61.1985 13.3793 59.8178 12.3693 58.207 12.3693C56.332 12.3693 55.109 13.7457 55.109 15.7656C55.109 17.8196 56.315 19.1278 58.288 19.1278ZM56.6431 15.1094C56.69 14.2741 57.3079 13.571 58.2283 13.571C59.1147 13.571 59.7113 14.2188 59.7198 15.1094H56.6431ZM67.6768 14.1847C67.4638 13.0767 66.5774 12.3693 65.0433 12.3693C63.4666 12.3693 62.3928 13.1449 62.397 14.3551C62.3928 15.3097 62.9808 15.9403 64.2379 16.2003L65.3544 16.4347C65.9553 16.5668 66.2365 16.8097 66.2365 17.1804C66.2365 17.6278 65.7507 17.9645 65.0178 17.9645C64.3104 17.9645 63.8501 17.6577 63.718 17.0696L62.2138 17.2145C62.4055 18.4162 63.4155 19.1278 65.022 19.1278C66.6584 19.1278 67.8132 18.2798 67.8175 17.0398C67.8132 16.1065 67.2124 15.5355 65.9766 15.267L64.8601 15.0284C64.1953 14.8793 63.9311 14.6491 63.9354 14.2699C63.9311 13.8267 64.4212 13.5199 65.0646 13.5199C65.7763 13.5199 66.1513 13.9077 66.2706 14.3381L67.6768 14.1847ZM71.9446 19.1278C73.5895 19.1278 74.6378 18.152 74.7486 16.7628H73.2741C73.142 17.4659 72.6349 17.8707 71.9574 17.8707C70.9943 17.8707 70.3722 17.0653 70.3722 15.7273C70.3722 14.4062 71.0071 13.6136 71.9574 13.6136C72.6989 13.6136 73.1548 14.0909 73.2741 14.7216H74.7486C74.642 13.3026 73.5341 12.3693 71.9361 12.3693C70.0185 12.3693 68.8082 13.7543 68.8082 15.7528C68.8082 17.7344 69.9886 19.1278 71.9446 19.1278ZM76.0153 19H77.5579V15.152C77.5579 14.321 78.1843 13.733 79.0323 13.733C79.2923 13.733 79.6161 13.7798 79.7482 13.8224V12.4034C79.6076 12.3778 79.3647 12.3608 79.1942 12.3608C78.4442 12.3608 77.8178 12.7869 77.5792 13.5455H77.511V12.4545H76.0153V19ZM80.7731 19H82.3157V12.4545H80.7731V19ZM81.5487 11.5256C82.0387 11.5256 82.4393 11.1506 82.4393 10.6903C82.4393 10.2259 82.0387 9.85085 81.5487 9.85085C81.0543 9.85085 80.6538 10.2259 80.6538 10.6903C80.6538 11.1506 81.0543 11.5256 81.5487 11.5256ZM83.902 21.4545H85.4446V17.9688H85.5085C85.7514 18.446 86.2585 19.1151 87.3835 19.1151C88.9261 19.1151 90.081 17.892 90.081 15.7358C90.081 13.554 88.892 12.3693 87.3793 12.3693C86.2244 12.3693 85.7429 13.0639 85.5085 13.5369H85.419V12.4545H83.902V21.4545ZM85.4148 15.7273C85.4148 14.4574 85.9602 13.6349 86.9531 13.6349C87.9801 13.6349 88.5085 14.5085 88.5085 15.7273C88.5085 16.9545 87.9716 17.8494 86.9531 17.8494C85.9688 17.8494 85.4148 16.9972 85.4148 15.7273ZM94.6705 12.4545H93.3793V10.8864H91.8366V12.4545H90.9077V13.6477H91.8366V17.2869C91.8281 18.5185 92.723 19.1236 93.8821 19.0895C94.321 19.0767 94.6236 18.9915 94.7898 18.9361L94.5298 17.7301C94.4446 17.7514 94.2699 17.7898 94.0781 17.7898C93.6903 17.7898 93.3793 17.6534 93.3793 17.0312V13.6477H94.6705V12.4545Z" fill="#383B57"/>
<rect x="0.25" y="0.25" width="101.5" height="28.5" rx="4.75" stroke="#EBEBEB" stroke-width="0.5"/>
</svg>
