<svg width="128" height="30" viewBox="0 0 128 30" fill="none" xmlns="http://www.w3.org/2000/svg">
<rect x="0.25" y="0.25" width="127.5" height="29.5" rx="4.75" fill="white"/>
<path d="M42.0284 11.2727H40.294L43.3665 20H45.3182L48.3949 11.2727H46.6562L44.3892 18.142H44.2997L42.0284 11.2727ZM49.4762 20H51.0188V13.4545H49.4762V20ZM50.2518 12.5256C50.7418 12.5256 51.1424 12.1506 51.1424 11.6903C51.1424 11.2259 50.7418 10.8509 50.2518 10.8509C49.7575 10.8509 49.3569 11.2259 49.3569 11.6903C49.3569 12.1506 49.7575 12.5256 50.2518 12.5256ZM57.7784 15.1847C57.5653 14.0767 56.679 13.3693 55.1449 13.3693C53.5682 13.3693 52.4943 14.1449 52.4986 15.3551C52.4943 16.3097 53.0824 16.9403 54.3395 17.2003L55.456 17.4347C56.0568 17.5668 56.3381 17.8097 56.3381 18.1804C56.3381 18.6278 55.8523 18.9645 55.1193 18.9645C54.4119 18.9645 53.9517 18.6577 53.8196 18.0696L52.3153 18.2145C52.5071 19.4162 53.517 20.1278 55.1236 20.1278C56.7599 20.1278 57.9148 19.2798 57.919 18.0398C57.9148 17.1065 57.3139 16.5355 56.0781 16.267L54.9616 16.0284C54.2969 15.8793 54.0327 15.6491 54.0369 15.2699C54.0327 14.8267 54.5227 14.5199 55.1662 14.5199C55.8778 14.5199 56.2528 14.9077 56.3722 15.3381L57.7784 15.1847ZM63.3629 17.2472C63.3629 18.2443 62.6513 18.7386 61.9695 18.7386C61.228 18.7386 60.7337 18.2145 60.7337 17.3835V13.4545H59.1911V17.6222C59.1911 19.1946 60.0859 20.0852 61.3729 20.0852C62.353 20.0852 63.0433 19.5696 63.3416 18.8366H63.4098V20H64.9055V13.4545H63.3629V17.2472ZM68.3754 20.1321C69.4023 20.1321 70.016 19.6506 70.2972 19.1009H70.3484V20H71.8313V15.6193C71.8313 13.8892 70.4208 13.3693 69.1722 13.3693C67.7958 13.3693 66.739 13.983 66.3981 15.1761L67.8384 15.3807C67.9918 14.9332 68.4265 14.5497 69.1808 14.5497C69.8967 14.5497 70.2887 14.9162 70.2887 15.5597V15.5852C70.2887 16.0284 69.8242 16.0497 68.6694 16.1733C67.3995 16.3097 66.185 16.6889 66.185 18.1634C66.185 19.4503 67.1268 20.1321 68.3754 20.1321ZM68.7759 18.9986C68.1325 18.9986 67.6722 18.7045 67.6722 18.1378C67.6722 17.5455 68.1879 17.2983 68.8782 17.2003C69.283 17.1449 70.0927 17.0426 70.293 16.8807V17.652C70.293 18.3807 69.7049 18.9986 68.7759 18.9986ZM74.9251 11.2727H73.3825V20H74.9251V11.2727ZM84.299 13.6719H85.8203C85.7905 12.1974 84.5334 11.1534 82.6754 11.1534C80.843 11.1534 79.4666 12.1847 79.4709 13.7273C79.4709 14.9801 80.3615 15.7003 81.7976 16.071L82.7905 16.3267C83.7322 16.5653 84.3544 16.8594 84.3587 17.5369C84.3544 18.2827 83.647 18.7812 82.6158 18.7812C81.6271 18.7812 80.8601 18.3381 80.7962 17.4219H79.2408C79.3047 19.1562 80.5959 20.1321 82.6286 20.1321C84.7209 20.1321 85.9354 19.0881 85.9396 17.5497C85.9354 16.0369 84.6868 15.3466 83.3743 15.0355L82.5561 14.831C81.8402 14.6605 81.0646 14.358 81.0732 13.6293C81.0774 12.973 81.6655 12.4915 82.6541 12.4915C83.5959 12.4915 84.218 12.9304 84.299 13.6719ZM90.5494 13.4545H89.2582V11.8864H87.7156V13.4545H86.7866V14.6477H87.7156V18.2869C87.707 19.5185 88.6019 20.1236 89.761 20.0895C90.1999 20.0767 90.5025 19.9915 90.6687 19.9361L90.4087 18.7301C90.3235 18.7514 90.1488 18.7898 89.957 18.7898C89.5692 18.7898 89.2582 18.6534 89.2582 18.0312V14.6477H90.5494V13.4545ZM96.0114 17.2472C96.0114 18.2443 95.2997 18.7386 94.6179 18.7386C93.8764 18.7386 93.3821 18.2145 93.3821 17.3835V13.4545H91.8395V17.6222C91.8395 19.1946 92.7344 20.0852 94.0213 20.0852C95.0014 20.0852 95.6918 19.5696 95.9901 18.8366H96.0582V20H97.554V13.4545H96.0114V17.2472ZM101.569 20.1151C102.694 20.1151 103.201 19.446 103.444 18.9688H103.538V20H105.055V11.2727H103.508V14.5369H103.444C103.21 14.0639 102.728 13.3693 101.574 13.3693C100.061 13.3693 98.8718 14.554 98.8718 16.7358C98.8718 18.892 100.027 20.1151 101.569 20.1151ZM102 18.8494C100.981 18.8494 100.444 17.9545 100.444 16.7273C100.444 15.5085 100.973 14.6349 102 14.6349C102.993 14.6349 103.538 15.4574 103.538 16.7273C103.538 17.9972 102.984 18.8494 102 18.8494ZM106.699 20H108.241V13.4545H106.699V20ZM107.474 12.5256C107.964 12.5256 108.365 12.1506 108.365 11.6903C108.365 11.2259 107.964 10.8509 107.474 10.8509C106.98 10.8509 106.58 11.2259 106.58 11.6903C106.58 12.1506 106.98 12.5256 107.474 12.5256ZM112.683 20.1278C114.6 20.1278 115.819 18.777 115.819 16.7528C115.819 14.7244 114.6 13.3693 112.683 13.3693C110.765 13.3693 109.547 14.7244 109.547 16.7528C109.547 18.777 110.765 20.1278 112.683 20.1278ZM112.691 18.892C111.63 18.892 111.11 17.946 111.11 16.7486C111.11 15.5511 111.63 14.5923 112.691 14.5923C113.735 14.5923 114.255 15.5511 114.255 16.7486C114.255 17.946 113.735 18.892 112.691 18.892Z" fill="#383B57"/>
<path d="M31.9731 6.09937L26.7777 4L17.6263 12.8676L12.0972 8.67323L10 9.72185L10.0269 20.8026L12.1242 21.8512L17.6532 17.6568L26.8046 26.5244L32 24.425L31.9731 6.09937ZM12.6485 17.6091V12.9154L15.2431 15.2622H15.27L12.6485 17.6091ZM26.2565 19.1701L21.0404 15.2622H21.0135L26.2565 11.3543V19.1701Z" fill="#148CCE"/>
<rect x="0.25" y="0.25" width="127.5" height="29.5" rx="4.75" stroke="#EBEBEB" stroke-width="0.5"/>
</svg>
