<svg width="100" height="30" viewBox="0 0 100 30" fill="none" xmlns="http://www.w3.org/2000/svg">
<rect x="0.25" y="0.25" width="99.5" height="29.5" rx="4.75" fill="white"/>
<path d="M19.0237 4.0332L9.01953 9.53317V20.5332L19.0237 26.0332L29.028 20.5332V9.53317L19.0237 4.0332Z" fill="url(#paint0_radial)"/>
<path d="M19.0075 9.59375L14.0566 12.3117V17.7476L19.0075 20.4656L23.9584 17.7476V12.3117L19.0075 9.59375Z" fill="#6F95DB"/>
<path d="M18.0948 4L9 9.03095L18.0948 13.7531L27.1896 9.06178L18.0948 4ZM18.0948 14.4013L9 19L18.0948 24L27.1572 18.9691L18.0948 14.4014V14.4013Z" fill="white" fill-opacity="0.1"/>
<path d="M38.6974 19H40.2571L42.0085 12.8764H42.0767L43.8239 19H45.3835L47.8466 10.2727H46.1463L44.5739 16.6903H44.4972L42.8139 10.2727H41.267L39.5881 16.6861H39.5071L37.9347 10.2727H36.2344L38.6974 19ZM51.1044 19.1278C52.63 19.1278 53.6783 18.3821 53.951 17.2443L52.5107 17.0824C52.3018 17.6364 51.7905 17.9261 51.1257 17.9261C50.1286 17.9261 49.468 17.2699 49.4553 16.1491H54.0149V15.6761C54.0149 13.3793 52.6342 12.3693 51.0234 12.3693C49.1484 12.3693 47.9254 13.7457 47.9254 15.7656C47.9254 17.8196 49.1314 19.1278 51.1044 19.1278ZM49.4595 15.1094C49.5064 14.2741 50.1243 13.571 51.0447 13.571C51.9311 13.571 52.5277 14.2188 52.5362 15.1094H49.4595ZM55.3881 19H56.9052V17.9688H56.9947C57.2376 18.446 57.7447 19.1151 58.8697 19.1151C60.4123 19.1151 61.5671 17.892 61.5671 15.7358C61.5671 13.554 60.3782 12.3693 58.8654 12.3693C57.7106 12.3693 57.229 13.0639 56.9947 13.5369H56.9308V10.2727H55.3881V19ZM56.9009 15.7273C56.9009 14.4574 57.4464 13.6349 58.4393 13.6349C59.4663 13.6349 59.9947 14.5085 59.9947 15.7273C59.9947 16.9545 59.4577 17.8494 58.4393 17.8494C57.4549 17.8494 56.9009 16.9972 56.9009 15.7273ZM62.8786 21.4545H64.4212V17.9688H64.4851C64.728 18.446 65.2351 19.1151 66.3601 19.1151C67.9027 19.1151 69.0575 17.892 69.0575 15.7358C69.0575 13.554 67.8686 12.3693 66.3558 12.3693C65.201 12.3693 64.7195 13.0639 64.4851 13.5369H64.3956V12.4545H62.8786V21.4545ZM64.3913 15.7273C64.3913 14.4574 64.9368 13.6349 65.9297 13.6349C66.9567 13.6349 67.4851 14.5085 67.4851 15.7273C67.4851 16.9545 66.9482 17.8494 65.9297 17.8494C64.9453 17.8494 64.3913 16.9972 64.3913 15.7273ZM72.2621 19.1321C73.2891 19.1321 73.9027 18.6506 74.1839 18.1009H74.2351V19H75.718V14.6193C75.718 12.8892 74.3075 12.3693 73.0589 12.3693C71.6825 12.3693 70.6257 12.983 70.2848 14.1761L71.7251 14.3807C71.8786 13.9332 72.3132 13.5497 73.0675 13.5497C73.7834 13.5497 74.1754 13.9162 74.1754 14.5597V14.5852C74.1754 15.0284 73.7109 15.0497 72.5561 15.1733C71.2862 15.3097 70.0717 15.6889 70.0717 17.1634C70.0717 18.4503 71.0135 19.1321 72.2621 19.1321ZM72.6626 17.9986C72.0192 17.9986 71.5589 17.7045 71.5589 17.1378C71.5589 16.5455 72.0746 16.2983 72.7649 16.2003C73.1697 16.1449 73.9794 16.0426 74.1797 15.8807V16.652C74.1797 17.3807 73.5916 17.9986 72.6626 17.9986ZM80.1243 19.1278C81.7692 19.1278 82.8175 18.152 82.9283 16.7628H81.4538C81.3217 17.4659 80.8146 17.8707 80.1371 17.8707C79.174 17.8707 78.5518 17.0653 78.5518 15.7273C78.5518 14.4062 79.1868 13.6136 80.1371 13.6136C80.8786 13.6136 81.3345 14.0909 81.4538 14.7216H82.9283C82.8217 13.3026 81.7138 12.3693 80.1158 12.3693C78.1982 12.3693 76.9879 13.7543 76.9879 15.7528C76.9879 17.7344 78.1683 19.1278 80.1243 19.1278ZM84.195 19H85.7376V16.8011L86.3001 16.2003L88.3029 19H90.1481L87.4634 15.2798L89.9989 12.4545H88.1964L85.8441 15.0838H85.7376V10.2727H84.195V19Z" fill="#383B57"/>
<rect x="0.25" y="0.25" width="99.5" height="29.5" rx="4.75" stroke="#EBEBEB" stroke-width="0.5"/>
<defs>
<radialGradient id="paint0_radial" cx="0" cy="0" r="1" gradientUnits="userSpaceOnUse" gradientTransform="translate(19.0238 15.0332) scale(10.0043 11)">
<stop stop-color="#93B4E7"/>
<stop offset="0.59273" stop-color="#B9D1F8"/>
<stop offset="1" stop-color="#9CB6E0"/>
</radialGradient>
</defs>
</svg>
