<svg width="78" height="30" viewBox="0 0 78 30" fill="none" xmlns="http://www.w3.org/2000/svg">
<rect x="0.25" y="0.25" width="77.5" height="29.5" rx="4.75" fill="white"/>
<path d="M18 4C11.9266 4 7 8.92664 7 15C7 21.0734 11.9266 26 18 26C24.0734 26 29 21.0734 29 15C29 8.92664 24.0734 4 18 4Z" fill="#368FB9"/>
<path d="M24.4721 18.9588C23.7926 19.1202 23.4486 19.2689 22.6076 19.8168C21.2953 20.6662 19.8598 21.0612 19.8598 21.0612C19.8598 21.0612 19.7408 21.2395 19.3968 21.3202C18.8022 21.4646 16.564 21.5878 16.3601 21.5921C15.8123 21.5963 15.4767 21.4519 15.3833 21.2268C15.0988 20.5473 15.791 20.25 15.791 20.25C15.791 20.25 15.6381 20.1565 15.5489 20.0716C15.4683 19.9909 15.3833 19.8295 15.3578 19.889C15.2517 20.148 15.1964 20.7809 14.9119 21.0654C14.5211 21.4604 13.7822 21.3287 13.3447 21.0994C12.8648 20.8446 13.3787 20.2457 13.3787 20.2457C13.3787 20.2457 13.1196 20.3986 12.9115 20.0843C12.7246 19.7955 12.5505 19.3029 12.5972 18.6955C12.6482 18.0033 13.4211 17.3322 13.4211 17.3322C13.4211 17.3322 13.2852 16.3087 13.7312 15.2596C14.1347 14.304 15.2219 13.5353 15.2219 13.5353C15.2219 13.5353 14.3088 12.5245 14.6486 11.6156C14.8694 11.021 14.9586 11.0253 15.0308 10.9998C15.2856 10.9021 15.532 10.7959 15.7146 10.5963C16.6277 9.61097 17.7914 9.79785 17.7914 9.79785C17.7914 9.79785 18.3435 8.12024 18.8532 8.44727C19.0103 8.5492 19.5752 9.80634 19.5752 9.80634C19.5752 9.80634 20.1783 9.45383 20.2462 9.58549C20.6115 10.2948 20.654 11.6496 20.4926 12.4735C20.2208 13.8326 19.5412 14.5631 19.2694 15.0218C19.2057 15.128 19.9999 15.4635 20.5011 16.8523C20.964 18.1222 20.552 19.1882 20.6242 19.3071C20.637 19.3283 20.6412 19.3368 20.6412 19.3368C20.6412 19.3368 21.1721 19.3793 22.2381 18.721C22.8073 18.3685 23.4825 17.9735 24.2513 17.965C24.9945 17.9523 25.0327 18.8229 24.4721 18.9588ZM25.4829 18.3345C25.4065 17.7314 24.8968 17.3152 24.2428 17.3237C23.2659 17.3365 22.4462 17.8419 21.9026 18.1774C21.6903 18.309 21.5076 18.4067 21.3505 18.4789C21.3845 17.9863 21.3547 17.3407 21.0999 16.6314C20.7899 15.782 20.3737 15.2596 20.0764 14.9581C20.4204 14.4569 20.8918 13.7264 21.1127 12.5967C21.3038 11.6326 21.2443 10.1334 20.8069 9.29244C20.7177 9.12256 20.569 8.99939 20.3822 8.94843C20.3057 8.92719 20.1613 8.88472 19.8767 8.96541C19.4478 8.07777 19.2991 7.98433 19.1845 7.90789C18.9466 7.75499 18.6663 7.72101 18.403 7.8187C18.0505 7.94611 17.7489 8.28588 17.4644 8.88897C17.4219 8.97816 17.3837 9.0631 17.3497 9.14804C16.8103 9.18626 15.9609 9.38163 15.2432 10.1589C15.154 10.2565 14.9798 10.3287 14.7972 10.3967H14.8015C14.4277 10.5283 14.2578 10.8341 14.0497 11.3863C13.7609 12.1592 14.0582 12.9195 14.3513 13.4121C13.952 13.7689 13.4211 14.338 13.1408 15.0048C12.7926 15.8287 12.7544 16.6357 12.7671 17.0731C12.4698 17.3874 12.0111 17.9778 11.9601 18.6403C11.8922 19.5662 12.2277 20.1948 12.3764 20.4241C12.4188 20.4921 12.4656 20.5473 12.5165 20.6025C12.4995 20.7171 12.4953 20.8403 12.5208 20.9677C12.576 21.265 12.7628 21.5071 13.0474 21.66C13.608 21.9573 14.3895 22.0847 14.9926 21.7832C15.2092 22.0125 15.6042 22.2334 16.3219 22.2334H16.3644C16.547 22.2334 18.8659 22.1102 19.5412 21.9446C19.8428 21.8724 20.0509 21.745 20.1868 21.6303C20.62 21.4944 21.8177 21.0866 22.9474 20.3561C23.7459 19.838 24.0219 19.7276 24.6165 19.5832C25.1941 19.443 25.5551 18.9164 25.4829 18.3345Z" fill="white"/>
<path d="M37.2642 10.2727L40.4389 15.7443V19H42.0156V15.7443L45.1903 10.2727H43.4048L41.2699 14.1335H41.1847L39.0497 10.2727H37.2642ZM47.0004 19.1321C48.0273 19.1321 48.641 18.6506 48.9222 18.1009H48.9734V19H50.4563V14.6193C50.4563 12.8892 49.0458 12.3693 47.7972 12.3693C46.4208 12.3693 45.364 12.983 45.0231 14.1761L46.4634 14.3807C46.6168 13.9332 47.0515 13.5497 47.8058 13.5497C48.5217 13.5497 48.9137 13.9162 48.9137 14.5597V14.5852C48.9137 15.0284 48.4492 15.0497 47.2944 15.1733C46.0245 15.3097 44.81 15.6889 44.81 17.1634C44.81 18.4503 45.7518 19.1321 47.0004 19.1321ZM47.4009 17.9986C46.7575 17.9986 46.2972 17.7045 46.2972 17.1378C46.2972 16.5455 46.8129 16.2983 47.5032 16.2003C47.908 16.1449 48.7177 16.0426 48.918 15.8807V16.652C48.918 17.3807 48.3299 17.9986 47.4009 17.9986ZM52.0075 19H53.5501V15.152C53.5501 14.321 54.1765 13.733 55.0245 13.733C55.2844 13.733 55.6083 13.7798 55.7404 13.8224V12.4034C55.5998 12.3778 55.3569 12.3608 55.1864 12.3608C54.4364 12.3608 53.81 12.7869 53.5714 13.5455H53.5032V12.4545H52.0075V19ZM58.3079 15.1648C58.3079 14.2188 58.8789 13.6733 59.6928 13.6733C60.4897 13.6733 60.967 14.1974 60.967 15.071V19H62.5096V14.8324C62.5138 13.2642 61.619 12.3693 60.2681 12.3693C59.288 12.3693 58.6147 12.8381 58.3164 13.5668H58.2397V12.4545H56.7653V19H58.3079V15.1648Z" fill="#383B57"/>
<rect x="0.25" y="0.25" width="77.5" height="29.5" rx="4.75" stroke="#EBEBEB" stroke-width="0.5"/>
</svg>
